<?xml version="1.0" encoding="UTF-8" standalone="no"?>
<!-- Created with Inkscape (http://www.inkscape.org/) -->

<svg
   xmlns:dc="http://purl.org/dc/elements/1.1/"
   xmlns:cc="http://creativecommons.org/ns#"
   xmlns:rdf="http://www.w3.org/1999/02/22-rdf-syntax-ns#"
   xmlns:svg="http://www.w3.org/2000/svg"
   xmlns="http://www.w3.org/2000/svg"
   xmlns:sodipodi="http://sodipodi.sourceforge.net/DTD/sodipodi-0.dtd"
   xmlns:inkscape="http://www.inkscape.org/namespaces/inkscape"
   width="505.37473"
   height="158.69408"
   id="svg3324"
   version="1.1"
   inkscape:version="0.91 r13725"
   sodipodi:docname="mapeado_colaborativo_logo6_color.svg">
  <defs
     id="defs3326" />
  <sodipodi:namedview
     id="base"
     pagecolor="#ffffff"
     bordercolor="#666666"
     borderopacity="1.0"
     inkscape:pageopacity="0.0"
     inkscape:pageshadow="2"
     inkscape:zoom="0.7"
     inkscape:cx="213.2276"
     inkscape:cy="-175.3404"
     inkscape:document-units="mm"
     inkscape:current-layer="layer1"
     showgrid="false"
     units="mm"
     showguides="true"
     inkscape:guide-bbox="true"
     inkscape:window-width="1280"
     inkscape:window-height="997"
     inkscape:window-x="0"
     inkscape:window-y="0"
     inkscape:window-maximized="1"
     fit-margin-top="5"
     fit-margin-left="5"
     fit-margin-right="5"
     fit-margin-bottom="5" />
  <metadata
     id="metadata3329">
    <rdf:RDF>
      <cc:Work
         rdf:about="">
        <dc:format>image/svg+xml</dc:format>
        <dc:type
           rdf:resource="http://purl.org/dc/dcmitype/StillImage" />
        <dc:title></dc:title>
      </cc:Work>
    </rdf:RDF>
  </metadata>
  <g
     inkscape:groupmode="layer"
     id="layer2"
     inkscape:label="Layer"
     style="display:none"
     transform="translate(-7.6861005,-8.1815278)">
    <rect
       style="display:inline;fill:#333333;fill-opacity:1;stroke:none"
       id="rect6796"
       width="695.71429"
       height="160"
       x="6.4285712"
       y="7.8796544" />
  </g>
  <g
     inkscape:label="Layer 1"
     inkscape:groupmode="layer"
     id="layer1"
     transform="translate(-7.6861005,-883.37701)"
     style="display:inline">
    <path
       inkscape:connector-curvature="0"
       style="display:inline;fill:#e9ddaf;fill-opacity:1;stroke:#333333;stroke-width:2.99862027;stroke-linecap:round;stroke-linejoin:round;stroke-miterlimit:4;stroke-dasharray:none;stroke-opacity:1"
       d="m 83.665847,891.02607 c 4.228336,0.37468 7.26692,31.38824 9.526898,37.779 l -7.720091,29.56615 5.420475,34.98662 -7.39155,32.52286 c 0,0 3.613663,0.3285 14.783105,4.1064 11.169436,3.7779 19.218016,5.5847 19.218016,5.5847 l 8.37706,-29.8947 -6.24172,-36.13643 7.39151,-34.98663 c -1.84832,-4.50557 -6.12745,-35.22208 -9.36258,-34.32961 0,0 -6.40604,-2.79237 -14.45457,-5.5847 -8.048579,-2.79237 -19.546553,-3.61366 -19.546553,-3.61366 z"
       id="path3834-6-6-9-0-4-2-8-7-95-6"
       sodipodi:nodetypes="cccccscccccsc" />
    <path
       inkscape:connector-curvature="0"
       style="display:inline;fill:#e9ddaf;fill-opacity:1;stroke:#333333;stroke-width:2.99862027;stroke-linecap:round;stroke-linejoin:round;stroke-miterlimit:4;stroke-dasharray:none;stroke-opacity:1"
       d="m 17.285677,891.21086 c -1.793033,-0.005 -2.915548,0.0821 -3.100338,0.14374 0,0 4.927716,8.54134 7.72004,18.23245 2.792419,9.69113 4.10647,16.75419 4.10647,16.75419 0,0 -3.613667,8.37706 -5.420522,16.26137 -1.806808,7.88431 -3.777884,15.11158 -3.777884,15.11158 0,0 3.777884,10.51241 6.077499,19.71079 2.299611,9.19834 2.46388,15.93286 2.46388,15.93286 0,0 -2.628104,6.73456 -4.927716,15.93296 -2.299612,9.1983 -3.285127,20.2035 -3.285127,20.2035 0,0 6.077499,-1.314 18.725256,0.8213 12.647711,2.1353 21.189043,3.9421 21.189043,3.9421 l 0.985564,-34.98661 -8.048576,-30.55167 10.512411,-39.25732 c -1.458735,-10.17076 -5.957696,-19.74133 -9.362629,-29.40194 0,0 -12.154951,-5.91323 -20.696288,-7.55577 -5.338339,-1.02661 -10.172724,-1.28552 -13.161083,-1.29353 z"
       id="path3834-2-6-3-3-9-8-8-6"
       sodipodi:nodetypes="ccscscscscscccccsc" />
    <path
       inkscape:connector-curvature="0"
       style="display:inline;fill:#786721;fill-opacity:1;stroke:#333333;stroke-width:2.99862027;stroke-linecap:round;stroke-linejoin:round;stroke-miterlimit:4;stroke-dasharray:none;stroke-opacity:1"
       d="m 83.665847,891.02607 c 0,0 -2.135348,2.29961 -14.454568,5.2562 -12.31922,2.95664 -18.068231,3.77789 -18.068231,3.77789 3.404933,9.66061 7.903894,19.23118 9.362629,29.40194 l -10.512411,39.25732 8.048576,30.55167 -0.985564,34.98661 c 0,0 8.377114,-1.8068 15.768668,-4.1064 7.391502,-2.2995 10.676633,-4.2706 10.676633,-4.2706 l 7.39155,-31.86582 -5.420475,-35.64366 7.720091,-29.56615 c -2.259978,-6.39076 -5.298562,-37.40432 -9.526898,-37.779 z"
       id="path3834-6-2-4-6-4-93-9-0-5"
       sodipodi:nodetypes="cscccccsccccc" />
    <path
       inkscape:connector-curvature="0"
       sodipodi:nodetypes="cscccccscscscscsc"
       style="display:inline;fill:#786721;fill-opacity:1;stroke:#333333;stroke-width:2.99862003;stroke-linecap:round;stroke-linejoin:round;stroke-miterlimit:4;stroke-dasharray:none;stroke-opacity:1"
       d="m 152.32506,889.87628 c 0,0 -15.93288,5.91323 -20.86055,6.89875 -4.92772,0.98556 -13.79754,3.4494 -13.79754,3.4494 3.23513,-0.89247 7.51426,29.82404 9.36258,34.32961 l -7.39151,34.98663 6.24172,36.13643 -8.37706,29.8947 c 0,0 8.54133,-1.8068 17.08267,-3.7779 8.54133,-1.9711 17.4112,-5.2562 17.4112,-5.2562 0,0 -0.4928,-3.2851 2.79233,-16.0972 3.28513,-12.81195 5.74901,-18.39669 5.74901,-18.39669 0,0 -0.32854,-2.9566 -2.46388,-12.97627 -2.1353,-10.01962 -6.57026,-19.54653 -6.57026,-19.54653 0,0 1.14983,-6.89874 4.43496,-15.60433 3.28513,-8.70564 6.73448,-17.57544 6.73448,-17.57544 0,0 -3.12086,-10.01966 -4.92767,-19.54656 -1.80681,-9.52685 -5.42048,-16.9184 -5.42048,-16.9184 z"
       id="path3834-6-6-3-7-6-5-7-2-3" />
    <path
       style="display:inline;fill:none;stroke:#333333;stroke-width:2.99862027;stroke-linecap:round;stroke-linejoin:round;stroke-miterlimit:4;stroke-dasharray:none;stroke-opacity:1"
       d="m 26.226532,925.34916 34.493873,3.12086 32.687022,-0.65702 33.836843,5.74896 35.64367,-8.2128"
       id="path10829-5-9-9-3-3"
       inkscape:connector-curvature="0" />
    <path
       style="display:inline;fill:none;stroke:#333333;stroke-width:2.99862027;stroke-linecap:round;stroke-linejoin:round;stroke-miterlimit:4;stroke-dasharray:none;stroke-opacity:1"
       d="m 17.028125,956.72213 33.179822,11.00519 35.479438,-10.34815 34.165335,11.16948 31.86578,-10.01966"
       id="path10831-0-4-3-9-2"
       inkscape:connector-curvature="0" />
    <path
       style="display:inline;fill:none;stroke:#333333;stroke-width:2.99862027;stroke-linecap:round;stroke-linejoin:round;stroke-miterlimit:4;stroke-dasharray:none;stroke-opacity:1"
       d="m 25.421447,992.36579 32.687021,5.91324 32.851287,-5.91324 34.986635,12.31931 34.65814,-13.63338"
       id="path10833-6-10-3-9-2"
       inkscape:connector-curvature="0" />
    <rect
       style="color:#000000;display:inline;overflow:visible;visibility:visible;fill:#d41112;fill-opacity:1;fill-rule:nonzero;stroke:none;stroke-width:8;marker:none;enable-background:accumulate"
       id="rect6110-8-9"
       width="90.800911"
       height="44.319496"
       x="73.603043"
       y="903.87531" />
    <path
       style="fill:#ffffff;fill-opacity:1"
       inkscape:connector-curvature="0"
       id="path3369-5-4-5-6-0-8-8-0-4-7-6"
       d="m 120.20856,909.63654 c 2.8695,0.23024 6.07582,0.98919 7.80265,3.51333 1.44543,1.98691 1.47527,4.54943 1.26635,6.89876 -0.005,0.57134 -0.71634,0.78454 -1.18108,0.80159 -1.56903,0.004 -3.15089,0.11511 -4.71144,-0.081 -1.27484,-0.67367 -0.29419,-2.54972 -1.18104,-3.53039 -0.45194,-0.69073 -1.29193,-0.86127 -2.01249,-1.1171 -0.03,-2.16172 -0.0597,-4.32344 0.0169,-6.48517 z" />
    <path
       style="fill:#ffffff;fill-opacity:1"
       inkscape:connector-curvature="0"
       id="path3377-7-0-3-3-0-0-8-89-6-79-1"
       d="m 88.290127,910.02028 c 4.805242,-0.1066 9.614747,0.0128 14.424253,-0.0512 0.72482,0.0554 1.66714,-0.22598 2.08071,0.57987 0.22171,1.94428 0.0554,3.91413 0.0938,5.87119 -5.679288,-0.0895 -11.375682,0.20466 -17.046494,-0.16629 -0.221711,-1.89736 -0.264347,-3.83311 -0.07244,-5.73474 0.12791,-0.12365 0.387994,-0.37095 0.520167,-0.49886 z" />
    <path
       style="fill:#ffffff;fill-opacity:1"
       inkscape:connector-curvature="0"
       id="path3387-7-2-0-6-8-5-5-2-1-0-9"
       d="m 111.4636,911.99439 c 1.85048,-1.70976 4.45989,-2.1873 6.89449,-2.31095 -0.0426,2.14041 0.0258,4.28508 -0.0384,6.42974 -1.52218,0.31126 -2.47724,1.71829 -2.45592,3.23192 -0.0126,4.54517 -0.0384,9.09886 0.0211,13.64828 0.0384,1.51789 0.98491,2.76718 2.46445,3.15944 0.008,2.08924 -0.0169,4.18274 0,6.27625 -2.68189,-0.0213 -5.58128,-0.71631 -7.43171,-2.78424 -1.33457,-1.42835 -1.74815,-3.44937 -1.78225,-5.34248 0.005,-5.55567 0,-11.11133 0,-16.66275 0.0169,-2.08071 0.71629,-4.25095 2.328,-5.64521 z" />
    <path
       style="fill:#ffffff;fill-opacity:1"
       inkscape:connector-curvature="0"
       id="path3389-0-1-6-4-8-4-8-53-1-2-4"
       d="m 133.34514,910.20362 c 1.30473,-0.29846 2.64783,-0.23025 3.97809,-0.22598 4.26376,0.0256 8.52325,-0.0256 12.78701,0.0256 0.64808,2.07219 0.23024,4.28508 0.30698,6.42122 -4.80097,0.009 -9.59769,-0.0128 -14.3944,0.009 -0.89542,0.009 -1.78652,-0.0895 -2.66484,-0.22598 -0.1578,-1.99971 -0.15349,-4.00794 -0.0127,-6.00337 z" />
    <path
       style="fill:#ffffff;fill-opacity:1"
       inkscape:connector-curvature="0"
       id="path3407-0-6-8-7-2-5-7-2-9-3-1"
       d="m 95.913697,918.51368 c 2.596617,-0.004 5.197503,-0.0384 7.794113,0.0128 -2.60941,5.08239 -5.269978,10.13067 -7.947605,15.1747 -2.562508,-0.0341 -5.125016,0.009 -7.687525,-0.0298 2.502817,-5.10797 5.248663,-10.09657 7.841017,-15.15765 z" />
    <path
       style="fill:#ffffff;fill-opacity:1"
       inkscape:connector-curvature="0"
       id="path3409-8-0-3-9-7-2-6-5-2-2-0"
       d="m 141.3866,918.65864 c 2.60514,-0.36669 5.29987,-0.0554 7.93913,-0.15349 -2.65631,5.04403 -5.32972,10.08377 -7.92634,15.1619 -2.60515,0.0213 -5.21029,0.0256 -7.81544,0.0171 2.59662,-5.00991 5.21456,-10.01129 7.80265,-15.02547 z" />
    <path
       style="fill:#ffffff;fill-opacity:1"
       inkscape:connector-curvature="0"
       id="path3413-2-7-8-2-2-2-4-9-4-8-73"
       d="m 118.15769,925.49344 c 0.0384,-0.59692 0.51591,-0.98066 1.10429,-0.87407 2.95908,-0.0639 5.91811,-0.0512 8.87714,-0.0128 0.46047,-0.0128 1.21945,0.19613 1.1555,0.80159 0.11938,2.95904 0,5.92662 0.0469,8.89419 0.064,2.18731 -0.71208,4.49399 -2.42607,5.93088 -1.83769,1.62448 -4.36183,2.14467 -6.74952,2.20009 0.008,-2.08923 0,-4.17422 0,-6.25919 0.82715,-0.42637 1.94001,-0.72057 2.26831,-1.70123 0.39652,-1.14268 0.1876,-2.37918 0.25156,-3.56023 -1.44117,0.0213 -2.8866,0.0299 -4.32771,-0.009 -0.40505,-1.76947 -0.388,-3.61993 -0.2004,-5.41071 z" />
    <path
       style="fill:#ffffff;fill-opacity:1"
       inkscape:connector-curvature="0"
       id="path3417-4-0-2-5-1-9-3-5-4-7-5"
       d="m 86.964081,935.7563 c 5.534375,0.0213 11.06444,0.0171 16.594549,0.004 0.67366,-0.0298 1.33879,0.11512 1.99113,0.28141 0.0682,1.78224 0.19613,3.58581 0.005,5.3638 -0.1407,0.96787 -1.29616,0.70351 -1.99544,0.78026 -5.466113,-0.0639 -10.932222,0.1066 -16.389851,-0.0938 -0.439158,-2.08498 -0.191865,-4.22538 -0.204656,-6.33594 z" />
    <path
       style="fill:#ffffff;fill-opacity:1"
       inkscape:connector-curvature="0"
       id="path3419-6-3-5-8-1-2-3-6-2-1-0"
       d="m 132.66296,935.7563 c 6.13128,0.13217 12.28389,-0.20467 18.40239,0.1748 0.0426,2.02528 0.0554,4.05483 -0.0127,6.08438 -2.00824,0.28568 -4.04205,0.12791 -6.05881,0.16628 -4.06336,-0.0298 -8.12673,0.064 -12.18583,-0.0597 -0.31125,-2.11056 -0.17481,-4.2467 -0.14496,-6.36577 z" />
    <path
       inkscape:connector-curvature="0"
       style="display:inline;fill:#333333;fill-opacity:1;stroke:#ffffff;stroke-width:1.47140944;stroke-linecap:round;stroke-linejoin:round;stroke-miterlimit:4;stroke-dasharray:none;stroke-opacity:1"
       d="m 96.914794,902.26279 c -6.262111,-0.002 -12.529832,2.38166 -17.304418,7.15624 -8.564545,8.56455 -9.42348,21.90624 -2.625155,31.45869 l -5.588344,5.59553 5.768155,5.76095 5.588344,-5.58834 c 9.552435,6.79833 22.894144,5.93939 31.458664,-2.62516 9.54919,-9.54917 9.54919,-25.0453 0,-34.59447 -4.77459,-4.77459 -11.03509,-7.16218 -17.297246,-7.16344 z m -0.48906,4.07799 c 5.380046,-0.12694 10.799086,1.86636 14.902246,5.96953 7.95764,7.95764 7.96483,20.86868 0.007,28.82633 -7.95766,7.95765 -20.883068,7.95765 -28.840725,0 -7.957658,-7.95765 -7.957658,-20.87589 0,-28.83353 3.854471,-3.85449 8.877288,-5.84313 13.93128,-5.96233 z"
       id="path1736-2-7-5-1-3-3"
       sodipodi:nodetypes="csccccssccsssscc" />
    <path
       inkscape:connector-curvature="0"
       style="display:inline;fill:#333333;fill-opacity:1;stroke:#ffffff;stroke-width:1.47140944;stroke-linecap:round;stroke-linejoin:round;stroke-miterlimit:4;stroke-dasharray:none;stroke-opacity:1"
       d="m 71.396877,946.47325 c 0,0 -4.43554,-1.33261 -6.11336,0.34522 l -19.145634,19.14564 c -1.803166,1.80317 -1.803166,4.70577 0,6.50894 l 5.02015,5.02735 c 1.803166,1.80317 4.705774,1.80317 6.50894,0 l 19.15283,-19.14564 c 1.677866,-1.67786 0.345229,-6.12056 0.345229,-6.12056 z"
       id="path1736-6-1-5-2-1-8-0"
       sodipodi:nodetypes="csscccccc" />
    <g
       style="display:inline;fill:#d41112;fill-opacity:1"
       id="g125"
       transform="matrix(0.53708542,0,0,-0.53708542,119.93376,992.67531)" />
    <path
       d="m 222.83157,920.08494 q 1.45276,0 2.47507,1.07612 1.02231,1.02231 1.02231,2.47507 l 0,32.12216 q 0,1.02231 -0.69947,1.72179 -0.69948,0.69947 -1.72179,0.69947 -1.02232,0 -1.77561,-0.69947 -0.69947,-0.69948 -0.69947,-1.72179 l 0,-30.56178 -12.42917,30.7232 q -0.43045,1.02231 -1.34515,1.66798 -0.9147,0.59186 -2.09843,0.59186 -1.18374,0 -2.09844,-0.59186 -0.9147,-0.64567 -1.34515,-1.66798 l -12.42917,-30.7232 0,30.56178 q 0,1.02231 -0.75329,1.72179 -0.69947,0.69947 -1.72179,0.69947 -1.02231,0 -1.72179,-0.69947 -0.69948,-0.69948 -0.69948,-1.72179 l 0,-32.12216 q 0,-1.45276 1.02232,-2.47507 1.02231,-1.07612 2.47507,-1.07612 l 1.7756,0 q 1.07612,0 1.93702,0.64567 0.91469,0.64567 1.34515,1.61418 l 12.21395,30.45417 12.21395,-30.45417 q 0.43044,-0.96851 1.29134,-1.61418 0.9147,-0.64567 1.99082,-0.64567 l 1.7756,0 z"
       style="font-style:normal;font-variant:normal;font-weight:normal;font-stretch:normal;font-size:medium;line-height:93.99999976%;font-family:'Varela Round';-inkscape-font-specification:'Varela Round';text-align:start;letter-spacing:0px;word-spacing:0px;text-anchor:start;fill:#333333;fill-opacity:1;stroke:#333333;stroke-width:10.31497574;stroke-linecap:round;stroke-linejoin:round;stroke-miterlimit:4;stroke-dasharray:none;stroke-opacity:1"
       id="path4338"
       inkscape:connector-curvature="0" />
    <path
       d="m 236.23345,931.86845 q 4.51971,-1.93702 9.36224,-1.93702 5.4882,0 8.50134,3.33597 2.6903,2.90552 2.6903,7.2638 l 0,15.22709 q 0,1.02231 -0.75329,1.72179 -0.69947,0.69947 -1.72178,0.69947 -1.02232,0 -1.72179,-0.69947 -0.69948,-0.69948 -0.69948,-1.72179 l 0,-1.39895 q -1.45276,1.50656 -3.92784,2.7979 -2.42127,1.29135 -6.18769,1.29135 -3.7126,0 -6.18768,-2.15224 -2.58268,-2.25986 -2.58268,-5.91865 0,-3.98165 3.01313,-6.2415 3.28217,-2.47507 9.36223,-2.47507 l 6.51053,0 0,-0.43045 q 0,-3.605 -1.7756,-5.11157 -1.7756,-1.56037 -5.4344,-1.56037 -3.12075,0 -7.1562,1.29135 -0.43044,0.10761 -0.9685,0.10761 -0.53806,0 -1.12992,-0.53807 -0.59187,-0.59186 -0.59187,-1.77559 0,-1.18373 1.39895,-1.77559 z m 1.66799,17.97118 q 0,4.30447 5.70343,4.30447 2.52888,0 4.68111,-1.23753 2.20605,-1.23753 3.60501,-2.79791 l 0,-4.5197 -5.86485,0 q -3.82022,0 -5.97247,0.96851 -2.15223,0.9685 -2.15223,3.28216 z"
       style="font-style:normal;font-variant:normal;font-weight:normal;font-stretch:normal;font-size:medium;line-height:93.99999976%;font-family:'Varela Round';-inkscape-font-specification:'Varela Round';text-align:start;letter-spacing:0px;word-spacing:0px;text-anchor:start;fill:#333333;fill-opacity:1;stroke:#333333;stroke-width:10.31497574;stroke-linecap:round;stroke-linejoin:round;stroke-miterlimit:4;stroke-dasharray:none;stroke-opacity:1"
       id="path4340"
       inkscape:connector-curvature="0" />
    <path
       d="m 269.95297,934.02068 q 3.98164,-4.08925 9.20082,-4.08925 5.21917,0 8.93179,3.71261 4.08925,4.08925 4.08925,10.54597 0,6.56432 -4.08925,10.59977 -3.76642,3.65881 -8.9856,3.65881 -5.16537,0 -9.14701,-4.08925 l 0,13.72051 q 0,1.07612 -0.69948,1.77559 -0.69948,0.69949 -1.7756,0.69949 -1.0223,0 -1.72179,-0.69949 -0.69947,-0.69947 -0.69947,-1.77559 l 0,-35.45813 q 0,-1.02231 0.69947,-1.72178 0.69949,-0.69949 1.72179,-0.69949 1.07612,0 1.7756,0.69949 0.69948,0.69947 0.69948,1.72178 l 0,1.39896 z m 0,15.81895 q 3.6588,4.03545 8.50134,4.03545 6.13388,0 8.17851,-5.48821 0.64566,-1.8294 0.64566,-4.19686 0,-4.62732 -2.47507,-7.26381 -2.36746,-2.42126 -6.3491,-2.42126 -4.84254,0 -8.50134,4.03544 l 0,11.29925 z"
       style="font-style:normal;font-variant:normal;font-weight:normal;font-stretch:normal;font-size:medium;line-height:93.99999976%;font-family:'Varela Round';-inkscape-font-specification:'Varela Round';text-align:start;letter-spacing:0px;word-spacing:0px;text-anchor:start;fill:#333333;fill-opacity:1;stroke:#333333;stroke-width:10.31497574;stroke-linecap:round;stroke-linejoin:round;stroke-miterlimit:4;stroke-dasharray:none;stroke-opacity:1"
       id="path4342"
       inkscape:connector-curvature="0" />
    <path
       d="m 302.33659,945.91179 q 0.43045,3.65881 2.74411,5.81105 2.31366,2.15224 6.45671,2.15224 4.14306,0 6.94097,-1.39896 0.96851,-0.48425 1.66799,-0.48425 0.69947,0 1.34515,0.59186 0.64567,0.59187 0.64567,1.34515 0,1.39896 -1.18374,2.04463 -1.12992,0.59186 -2.04462,1.02232 -0.9147,0.43044 -1.99082,0.75328 -2.42127,0.69948 -5.59582,0.69948 -6.61813,0 -10.27694,-3.71261 -3.65881,-3.71262 -3.65881,-10.54597 0,-5.91866 3.06695,-9.84649 3.44357,-4.41209 9.79268,-4.41209 6.02627,0 9.52365,4.08925 3.28217,3.82022 3.28217,9.46985 0,1.02231 -0.69948,1.72179 -0.64567,0.69947 -1.77559,0.69947 l -18.24023,0 z m 7.90948,-11.83731 q -4.78873,0 -6.99477,4.25068 -0.8071,1.50657 -0.91471,3.60499 l 15.87276,0 q -0.21522,-3.82022 -2.79791,-6.02626 -2.15224,-1.82941 -5.16537,-1.82941 z"
       style="font-style:normal;font-variant:normal;font-weight:normal;font-stretch:normal;font-size:medium;line-height:93.99999976%;font-family:'Varela Round';-inkscape-font-specification:'Varela Round';text-align:start;letter-spacing:0px;word-spacing:0px;text-anchor:start;fill:#333333;fill-opacity:1;stroke:#333333;stroke-width:10.31497574;stroke-linecap:round;stroke-linejoin:round;stroke-miterlimit:4;stroke-dasharray:none;stroke-opacity:1"
       id="path4344"
       inkscape:connector-curvature="0" />
    <path
       d="m 330.70915,931.86845 q 4.51969,-1.93702 9.36223,-1.93702 5.48821,0 8.50134,3.33597 2.6903,2.90552 2.6903,7.2638 l 0,15.22709 q 0,1.02231 -0.75328,1.72179 -0.69948,0.69947 -1.7218,0.69947 -1.02231,0 -1.72179,-0.69947 -0.69947,-0.69948 -0.69947,-1.72179 l 0,-1.39895 q -1.45276,1.50656 -3.92783,2.7979 -2.42127,1.29135 -6.18769,1.29135 -3.71262,0 -6.18769,-2.15224 -2.58269,-2.25986 -2.58269,-5.91865 0,-3.98165 3.01314,-6.2415 3.28216,-2.47507 9.36224,-2.47507 l 6.51052,0 0,-0.43045 q 0,-3.605 -1.7756,-5.11157 -1.7756,-1.56037 -5.4344,-1.56037 -3.12075,0 -7.15619,1.29135 -0.43045,0.10761 -0.96851,0.10761 -0.53806,0 -1.12993,-0.53807 -0.59186,-0.59186 -0.59186,-1.77559 0,-1.18373 1.39896,-1.77559 z m 1.66798,17.97118 q 0,4.30447 5.70343,4.30447 2.52888,0 4.68112,-1.23753 2.20604,-1.23753 3.605,-2.79791 l 0,-4.5197 -5.86485,0 q -3.82023,0 -5.97246,0.96851 -2.15224,0.9685 -2.15224,3.28216 z"
       style="font-style:normal;font-variant:normal;font-weight:normal;font-stretch:normal;font-size:medium;line-height:93.99999976%;font-family:'Varela Round';-inkscape-font-specification:'Varela Round';text-align:start;letter-spacing:0px;word-spacing:0px;text-anchor:start;fill:#333333;fill-opacity:1;stroke:#333333;stroke-width:10.31497574;stroke-linecap:round;stroke-linejoin:round;stroke-miterlimit:4;stroke-dasharray:none;stroke-opacity:1"
       id="path4346"
       inkscape:connector-curvature="0" />
    <path
       d="m 380.0862,954.35934 q -3.98164,4.08925 -9.20081,4.08925 -5.16537,0 -8.93179,-3.65881 -4.08925,-4.03545 -4.08925,-10.59977 0,-6.45672 4.08925,-10.54597 3.71261,-3.71261 8.93179,-3.71261 5.21917,0 9.20081,4.08925 l 0,-13.18246 q 0,-1.07611 0.69948,-1.77559 0.69948,-0.69948 1.72179,-0.69948 1.07612,0 1.7756,0.69948 0.69947,0.69948 0.69947,1.77559 l 0,34.92007 q 0,1.02231 -0.69947,1.72179 -0.69948,0.69947 -1.7756,0.69947 -1.02231,0 -1.72179,-0.69947 -0.69948,-0.69948 -0.69948,-1.72179 l 0,-1.39895 z m 0,-15.81896 q -3.6588,-4.03544 -8.50134,-4.03544 -6.13388,0 -8.1247,5.4882 -0.69948,1.8294 -0.69948,4.19687 0,4.6273 2.52888,7.2638 2.31366,2.42127 6.2953,2.42127 4.84254,0 8.50134,-4.03545 l 0,-11.29925 z"
       style="font-style:normal;font-variant:normal;font-weight:normal;font-stretch:normal;font-size:medium;line-height:93.99999976%;font-family:'Varela Round';-inkscape-font-specification:'Varela Round';text-align:start;letter-spacing:0px;word-spacing:0px;text-anchor:start;fill:#333333;fill-opacity:1;stroke:#333333;stroke-width:10.31497574;stroke-linecap:round;stroke-linejoin:round;stroke-miterlimit:4;stroke-dasharray:none;stroke-opacity:1"
       id="path4348"
       inkscape:connector-curvature="0" />
    <path
       d="m 405.58265,929.93143 q 6.24149,0 10.00791,3.92783 3.76642,3.98164 3.76642,10.33075 0,6.3491 -3.76642,10.33074 -3.76642,3.92784 -10.00791,3.92784 -6.29529,0 -10.0079,-3.92784 -3.76642,-3.92783 -3.76642,-10.33074 0,-6.40291 3.76642,-10.33075 3.71261,-3.92783 10.0079,-3.92783 z m -6.02626,21.84522 q 1.29134,1.12992 2.85171,1.66798 1.61418,0.53806 3.12074,0.53806 1.56038,0 3.12076,-0.53806 1.61417,-0.53806 2.90552,-1.66798 2.90552,-2.63649 2.90552,-7.64045 0,-4.84254 -2.90552,-7.53284 -2.42127,-2.20603 -5.97247,-2.20603 -5.81104,0 -8.07089,5.21917 -0.80709,1.88321 -0.80709,4.57351 0,2.63649 0.80709,4.51969 0.80709,1.88322 2.04463,3.06695 z"
       style="font-style:normal;font-variant:normal;font-weight:normal;font-stretch:normal;font-size:medium;line-height:93.99999976%;font-family:'Varela Round';-inkscape-font-specification:'Varela Round';text-align:start;letter-spacing:0px;word-spacing:0px;text-anchor:start;fill:#333333;fill-opacity:1;stroke:#333333;stroke-width:10.31497574;stroke-linecap:round;stroke-linejoin:round;stroke-miterlimit:4;stroke-dasharray:none;stroke-opacity:1"
       id="path4350"
       inkscape:connector-curvature="0" />
    <path
       d="m 211.74754,1001.8162 q 0.43045,-0.2152 1.18373,-0.2152 0.80709,0 1.34515,0.6456 0.59187,0.5919 0.59187,1.399 0,1.4528 -1.18374,2.0446 -2.52888,1.399 -5.4344,2.3675 -2.85171,0.9685 -6.88716,0.9685 -3.98164,0 -7.42522,-1.2914 -3.44358,-1.3451 -5.97246,-3.8739 -5.38059,-5.27307 -5.38059,-14.15106 0,-8.87798 5.38059,-14.15096 5.21918,-5.16537 13.45149,-5.16537 3.98164,0 6.83335,0.9685 2.90552,0.96851 4.41209,1.82941 1.56037,0.80708 1.88321,1.34515 0.32284,0.48425 0.32284,1.29134 0,0.75328 -0.59187,1.39896 -0.53806,0.59186 -1.34515,0.59186 -0.75328,0 -1.18373,-0.21523 -2.15224,-1.12992 -4.41209,-1.82939 -2.25985,-0.69949 -5.64962,-0.69949 -3.33597,0 -6.08008,1.12993 -2.6903,1.12993 -4.5197,3.12074 -3.605,3.92784 -3.605,10.38455 0,6.45672 3.605,10.38456 3.92784,4.2507 10.815,4.2507 3.17455,0 5.4344,-0.6995 2.25985,-0.6995 4.41209,-1.8294 z"
       style="font-style:normal;font-variant:normal;font-weight:normal;font-stretch:normal;font-size:medium;line-height:93.99999976%;font-family:'Varela Round';-inkscape-font-specification:'Varela Round';text-align:start;letter-spacing:0px;word-spacing:0px;text-anchor:start;fill:#333333;fill-opacity:1;stroke:#333333;stroke-width:10.31497574;stroke-linecap:round;stroke-linejoin:round;stroke-miterlimit:4;stroke-dasharray:none;stroke-opacity:1"
       id="path4352"
       inkscape:connector-curvature="0" />
    <path
       d="m 232.60491,980.50902 q 6.24149,0 10.00791,3.92784 3.76642,3.98164 3.76642,10.33074 0,6.3491 -3.76642,10.3308 -3.76642,3.9278 -10.00791,3.9278 -6.2953,0 -10.0079,-3.9278 -3.76642,-3.9279 -3.76642,-10.3308 0,-6.40291 3.76642,-10.33074 3.7126,-3.92784 10.0079,-3.92784 z m -6.02626,21.84528 q 1.29134,1.1299 2.85171,1.6679 1.61418,0.5381 3.12074,0.5381 1.56037,0 3.12075,-0.5381 1.61418,-0.538 2.90553,-1.6679 2.90551,-2.63654 2.90551,-7.6405 0,-4.84254 -2.90551,-7.53284 -2.42127,-2.20604 -5.97247,-2.20604 -5.81104,0 -8.07089,5.21918 -0.80709,1.88321 -0.80709,4.5735 0,2.6365 0.80709,4.5197 0.80709,1.8832 2.04463,3.067 z"
       style="font-style:normal;font-variant:normal;font-weight:normal;font-stretch:normal;font-size:medium;line-height:93.99999976%;font-family:'Varela Round';-inkscape-font-specification:'Varela Round';text-align:start;letter-spacing:0px;word-spacing:0px;text-anchor:start;fill:#333333;fill-opacity:1;stroke:#333333;stroke-width:10.31497574;stroke-linecap:round;stroke-linejoin:round;stroke-miterlimit:4;stroke-dasharray:none;stroke-opacity:1"
       id="path4354"
       inkscape:connector-curvature="0" />
    <path
       d="m 253.61193,971.41582 q 0,-1.07612 0.69948,-1.7756 0.69948,-0.69947 1.72179,-0.69947 1.07612,0 1.7756,0.69947 0.69948,0.69948 0.69948,1.7756 l 0,34.91998 q 0,1.0224 -0.69948,1.7219 -0.69948,0.6994 -1.7756,0.6994 -1.02231,0 -1.72179,-0.6994 -0.69948,-0.6995 -0.69948,-1.7219 l 0,-34.91998 z"
       style="font-style:normal;font-variant:normal;font-weight:normal;font-stretch:normal;font-size:medium;line-height:93.99999976%;font-family:'Varela Round';-inkscape-font-specification:'Varela Round';text-align:start;letter-spacing:0px;word-spacing:0px;text-anchor:start;fill:#333333;fill-opacity:1;stroke:#333333;stroke-width:10.31497574;stroke-linecap:round;stroke-linejoin:round;stroke-miterlimit:4;stroke-dasharray:none;stroke-opacity:1"
       id="path4356"
       inkscape:connector-curvature="0" />
    <path
       d="m 268.49601,982.44604 q 4.5197,-1.93702 9.36223,-1.93702 5.48821,0 8.50134,3.33598 2.6903,2.90552 2.6903,7.2638 l 0,15.227 q 0,1.0224 -0.75328,1.7219 -0.69948,0.6994 -1.72179,0.6994 -1.02231,0 -1.72179,-0.6994 -0.69948,-0.6995 -0.69948,-1.7219 l 0,-1.3988 q -1.45276,1.5065 -3.92783,2.7978 -2.42127,1.2914 -6.18769,1.2914 -3.71261,0 -6.18769,-2.1523 -2.58268,-2.2598 -2.58268,-5.9186 0,-3.98165 3.01314,-6.2415 3.28216,-2.47508 9.36223,-2.47508 l 6.51052,0 0,-0.43044 q 0,-3.605 -1.7756,-5.11157 -1.77559,-1.56037 -5.4344,-1.56037 -3.12074,0 -7.15619,1.29134 -0.43045,0.10762 -0.96851,0.10762 -0.53805,0 -1.12992,-0.53807 -0.59187,-0.59186 -0.59187,-1.77559 0,-1.18374 1.39896,-1.7756 z m 1.66798,17.97116 q 0,4.3045 5.70343,4.3045 2.52888,0 4.68112,-1.2375 2.20605,-1.2376 3.605,-2.7979 l 0,-4.51974 -5.86485,0 q -3.82022,0 -5.97246,0.96851 -2.15224,0.9685 -2.15224,3.28213 z"
       style="font-style:normal;font-variant:normal;font-weight:normal;font-stretch:normal;font-size:medium;line-height:93.99999976%;font-family:'Varela Round';-inkscape-font-specification:'Varela Round';text-align:start;letter-spacing:0px;word-spacing:0px;text-anchor:start;fill:#333333;fill-opacity:1;stroke:#333333;stroke-width:10.31497574;stroke-linecap:round;stroke-linejoin:round;stroke-miterlimit:4;stroke-dasharray:none;stroke-opacity:1"
       id="path4358"
       inkscape:connector-curvature="0" />
    <path
       d="m 302.21553,984.59828 q 3.98164,-4.08926 9.20082,-4.08926 5.21918,0 8.93178,3.71262 4.08926,4.08925 4.08926,10.54596 0,6.5643 -4.08926,10.5998 -3.76641,3.6588 -8.98559,3.6588 -5.16537,0 -9.14701,-4.0892 l 0,1.3988 q 0,1.0224 -0.69948,1.7219 -0.69948,0.6994 -1.7756,0.6994 -1.02231,0 -1.72178,-0.6994 -0.69949,-0.6995 -0.69949,-1.7219 l 0,-34.91998 q 0,-1.07612 0.69949,-1.7756 0.69947,-0.69947 1.72178,-0.69947 1.07612,0 1.7756,0.69947 0.69948,0.69948 0.69948,1.7756 l 0,13.18246 z m 0,15.81892 q 3.65881,4.0355 8.50134,4.0355 6.13388,0 8.1785,-5.48823 0.64568,-1.8294 0.64568,-4.19687 0,-4.62731 -2.47508,-7.2638 -2.36746,-2.42126 -6.3491,-2.42126 -4.84253,0 -8.50134,4.03544 l 0,11.29922 z"
       style="font-style:normal;font-variant:normal;font-weight:normal;font-stretch:normal;font-size:medium;line-height:93.99999976%;font-family:'Varela Round';-inkscape-font-specification:'Varela Round';text-align:start;letter-spacing:0px;word-spacing:0px;text-anchor:start;fill:#333333;fill-opacity:1;stroke:#333333;stroke-width:10.31497574;stroke-linecap:round;stroke-linejoin:round;stroke-miterlimit:4;stroke-dasharray:none;stroke-opacity:1"
       id="path4360"
       inkscape:connector-curvature="0" />
    <path
       d="m 343.36951,980.50902 q 6.24149,0 10.00791,3.92784 3.76642,3.98164 3.76642,10.33074 0,6.3491 -3.76642,10.3308 -3.76642,3.9278 -10.00791,3.9278 -6.29529,0 -10.00791,-3.9278 -3.76642,-3.9279 -3.76642,-10.3308 0,-6.40291 3.76642,-10.33074 3.71262,-3.92784 10.00791,-3.92784 z m -6.02627,21.84528 q 1.29135,1.1299 2.85172,1.6679 1.61417,0.5381 3.12074,0.5381 1.56038,0 3.12075,-0.5381 1.61418,-0.538 2.90552,-1.6679 2.90552,-2.63654 2.90552,-7.6405 0,-4.84254 -2.90552,-7.53284 -2.42127,-2.20604 -5.97246,-2.20604 -5.81104,0 -8.0709,5.21918 -0.80708,1.88321 -0.80708,4.5735 0,2.6365 0.80708,4.5197 0.8071,1.8832 2.04463,3.067 z"
       style="font-style:normal;font-variant:normal;font-weight:normal;font-stretch:normal;font-size:medium;line-height:93.99999976%;font-family:'Varela Round';-inkscape-font-specification:'Varela Round';text-align:start;letter-spacing:0px;word-spacing:0px;text-anchor:start;fill:#333333;fill-opacity:1;stroke:#333333;stroke-width:10.31497574;stroke-linecap:round;stroke-linejoin:round;stroke-miterlimit:4;stroke-dasharray:none;stroke-opacity:1"
       id="path4362"
       inkscape:connector-curvature="0" />
    <path
       d="m 368.84243,985.56679 q 3.76642,-5.05777 8.44753,-5.05777 l 0.26903,0 q 1.02232,0 1.66799,0.69949 0.69948,0.69947 0.69948,1.77559 0,1.02231 -0.69948,1.66798 -0.69948,0.59187 -1.7756,0.59187 l -0.26903,0 q -2.69029,0 -4.84254,1.34515 -2.09842,1.29134 -3.49738,3.38977 l 0,16.35693 q 0,1.0224 -0.75328,1.7219 -0.69948,0.6994 -1.72179,0.6994 -1.02232,0 -1.72179,-0.6994 -0.69948,-0.6995 -0.69948,-1.7219 l 0,-23.08267 q 0,-1.02231 0.69948,-1.72179 0.69947,-0.75329 1.72179,-0.75329 1.02231,0 1.72179,0.75329 0.75328,0.69948 0.75328,1.72179 l 0,2.31366 z"
       style="font-style:normal;font-variant:normal;font-weight:normal;font-stretch:normal;font-size:medium;line-height:93.99999976%;font-family:'Varela Round';-inkscape-font-specification:'Varela Round';text-align:start;letter-spacing:0px;word-spacing:0px;text-anchor:start;fill:#333333;fill-opacity:1;stroke:#333333;stroke-width:10.31497574;stroke-linecap:round;stroke-linejoin:round;stroke-miterlimit:4;stroke-dasharray:none;stroke-opacity:1"
       id="path4364"
       inkscape:connector-curvature="0" />
    <path
       d="m 385.77618,982.44604 q 4.5197,-1.93702 9.36224,-1.93702 5.4882,0 8.50134,3.33598 2.69029,2.90552 2.69029,7.2638 l 0,15.227 q 0,1.0224 -0.75328,1.7219 -0.69948,0.6994 -1.72179,0.6994 -1.02232,0 -1.72179,-0.6994 -0.69948,-0.6995 -0.69948,-1.7219 l 0,-1.3988 q -1.45276,1.5065 -3.92784,2.7978 -2.42126,1.2914 -6.18768,1.2914 -3.71261,0 -6.18768,-2.1523 -2.58269,-2.2598 -2.58269,-5.9186 0,-3.98165 3.01313,-6.2415 3.28217,-2.47508 9.36224,-2.47508 l 6.51052,0 0,-0.43044 q 0,-3.605 -1.7756,-5.11157 -1.77559,-1.56037 -5.4344,-1.56037 -3.12074,0 -7.15618,1.29134 -0.43046,0.10762 -0.96851,0.10762 -0.53807,0 -1.12993,-0.53807 -0.59186,-0.59186 -0.59186,-1.77559 0,-1.18374 1.39895,-1.7756 z m 1.66798,17.97116 q 0,4.3045 5.70343,4.3045 2.52888,0 4.68113,-1.2375 2.20603,-1.2376 3.60499,-2.7979 l 0,-4.51974 -5.86485,0 q -3.82022,0 -5.97246,0.96851 -2.15224,0.9685 -2.15224,3.28213 z"
       style="font-style:normal;font-variant:normal;font-weight:normal;font-stretch:normal;font-size:medium;line-height:93.99999976%;font-family:'Varela Round';-inkscape-font-specification:'Varela Round';text-align:start;letter-spacing:0px;word-spacing:0px;text-anchor:start;fill:#333333;fill-opacity:1;stroke:#333333;stroke-width:10.31497574;stroke-linecap:round;stroke-linejoin:round;stroke-miterlimit:4;stroke-dasharray:none;stroke-opacity:1"
       id="path4366"
       inkscape:connector-curvature="0" />
    <path
       d="m 424.34454,1004.7217 q 1.45276,0 2.04463,-0.2152 0.64567,-0.2691 1.34515,-0.2691 0.75328,0 1.34515,0.5381 0.59186,0.538 0.59186,1.6142 0,1.0761 -1.07612,1.5604 -2.31365,1.0761 -3.98164,1.0761 -1.61418,0 -2.95933,-0.1615 -1.34515,-0.1613 -2.58269,-0.9146 -2.95932,-1.7218 -2.95932,-6.0263 l 0,-16.67985 -3.82022,0 q -1.02232,0 -1.02232,-1.02231 0,-0.48425 0.48426,-0.91471 l 7.3176,-7.15619 q 0.48426,-0.48425 0.91471,-0.48425 0.43044,0 0.69947,0.32284 0.32284,0.32283 0.32284,0.75328 l 0,4.30448 6.08007,0 q 0.91471,0 1.50657,0.59186 0.59187,0.59187 0.59187,1.50657 0,0.9147 -0.59187,1.50656 -0.59186,0.59187 -1.50657,0.59187 l -6.08007,0 0,16.24935 q 0,2.0447 1.23754,2.7979 0.69947,0.4305 2.09843,0.4305 z"
       style="font-style:normal;font-variant:normal;font-weight:normal;font-stretch:normal;font-size:medium;line-height:93.99999976%;font-family:'Varela Round';-inkscape-font-specification:'Varela Round';text-align:start;letter-spacing:0px;word-spacing:0px;text-anchor:start;fill:#333333;fill-opacity:1;stroke:#333333;stroke-width:10.31497574;stroke-linecap:round;stroke-linejoin:round;stroke-miterlimit:4;stroke-dasharray:none;stroke-opacity:1"
       id="path4368"
       inkscape:connector-curvature="0" />
    <path
       d="m 435.30709,983.25313 q 0,-1.07612 0.69948,-1.7756 0.69947,-0.69948 1.72179,-0.69948 1.07612,0 1.77559,0.69948 0.69949,0.69948 0.69949,1.7756 l 0,23.08267 q 0,1.0224 -0.69949,1.7219 -0.69947,0.6994 -1.77559,0.6994 -1.02232,0 -1.72179,-0.6994 -0.69948,-0.6995 -0.69948,-1.7219 l 0,-23.08267 z m 5.3806,-10.54597 q 0,1.12993 -0.8071,1.93702 -0.80708,0.80708 -1.93701,0.80708 l -0.32283,0 q -1.12993,0 -1.93702,-0.80708 -0.80708,-0.80709 -0.80708,-1.93702 l 0,-0.21522 q 0,-1.12993 0.80708,-1.93701 0.80709,-0.8071 1.93702,-0.8071 l 0.32283,0 q 1.12993,0 1.93701,0.8071 0.8071,0.80708 0.8071,1.93701 l 0,0.21522 z"
       style="font-style:normal;font-variant:normal;font-weight:normal;font-stretch:normal;font-size:medium;line-height:93.99999976%;font-family:'Varela Round';-inkscape-font-specification:'Varela Round';text-align:start;letter-spacing:0px;word-spacing:0px;text-anchor:start;fill:#333333;fill-opacity:1;stroke:#333333;stroke-width:10.31497574;stroke-linecap:round;stroke-linejoin:round;stroke-miterlimit:4;stroke-dasharray:none;stroke-opacity:1"
       id="path4370"
       inkscape:connector-curvature="0" />
    <path
       d="m 467.20393,982.17701 q 0.64567,-1.39896 2.36746,-1.39896 0.86089,0 1.56037,0.75329 0.69948,0.69948 0.69948,1.34515 0,0.8609 -0.26903,1.50656 l -9.36224,22.38325 q -0.37664,0.8071 -1.18373,1.399 -0.75328,0.5918 -1.77559,0.5918 l -0.53807,0 q -1.0223,0 -1.8294,-0.5918 -0.75328,-0.5919 -1.12992,-1.399 l -9.36224,-22.38325 q -0.26903,-0.64566 -0.26903,-1.39895 0,-0.75328 0.69948,-1.45276 0.69948,-0.75329 1.56038,-0.75329 1.72178,0 2.36745,1.39896 l 8.23232,20.87669 8.23231,-20.87669 z"
       style="font-style:normal;font-variant:normal;font-weight:normal;font-stretch:normal;font-size:medium;line-height:93.99999976%;font-family:'Varela Round';-inkscape-font-specification:'Varela Round';text-align:start;letter-spacing:0px;word-spacing:0px;text-anchor:start;fill:#333333;fill-opacity:1;stroke:#333333;stroke-width:10.31497574;stroke-linecap:round;stroke-linejoin:round;stroke-miterlimit:4;stroke-dasharray:none;stroke-opacity:1"
       id="path4372"
       inkscape:connector-curvature="0" />
    <path
       d="m 489.12901,980.50902 q 6.2415,0 10.00792,3.92784 3.76642,3.98164 3.76642,10.33074 0,6.3491 -3.76642,10.3308 -3.76642,3.9278 -10.00792,3.9278 -6.29528,0 -10.0079,-3.9278 -3.76642,-3.9279 -3.76642,-10.3308 0,-6.40291 3.76642,-10.33074 3.71262,-3.92784 10.0079,-3.92784 z m -6.02626,21.84528 q 1.29135,1.1299 2.85172,1.6679 1.61417,0.5381 3.12074,0.5381 1.56038,0 3.12075,-0.5381 1.61418,-0.538 2.90552,-1.6679 2.90552,-2.63654 2.90552,-7.6405 0,-4.84254 -2.90552,-7.53284 -2.42127,-2.20604 -5.97247,-2.20604 -5.81103,0 -8.07089,5.21918 -0.80708,1.88321 -0.80708,4.5735 0,2.6365 0.80708,4.5197 0.8071,1.8832 2.04463,3.067 z"
       style="font-style:normal;font-variant:normal;font-weight:normal;font-stretch:normal;font-size:medium;line-height:93.99999976%;font-family:'Varela Round';-inkscape-font-specification:'Varela Round';text-align:start;letter-spacing:0px;word-spacing:0px;text-anchor:start;fill:#333333;fill-opacity:1;stroke:#333333;stroke-width:10.31497574;stroke-linecap:round;stroke-linejoin:round;stroke-miterlimit:4;stroke-dasharray:none;stroke-opacity:1"
       id="path4374"
       inkscape:connector-curvature="0" />
    <path
       d="m 222.83157,920.08494 q 1.45276,0 2.47507,1.07612 1.02231,1.02231 1.02231,2.47507 l 0,32.12216 q 0,1.02231 -0.69947,1.72179 -0.69948,0.69947 -1.72179,0.69947 -1.02232,0 -1.77561,-0.69947 -0.69947,-0.69948 -0.69947,-1.72179 l 0,-30.56178 -12.42917,30.7232 q -0.43045,1.02231 -1.34515,1.66798 -0.9147,0.59186 -2.09843,0.59186 -1.18374,0 -2.09844,-0.59186 -0.9147,-0.64567 -1.34515,-1.66798 l -12.42917,-30.7232 0,30.56178 q 0,1.02231 -0.75329,1.72179 -0.69947,0.69947 -1.72179,0.69947 -1.02231,0 -1.72179,-0.69947 -0.69948,-0.69948 -0.69948,-1.72179 l 0,-32.12216 q 0,-1.45276 1.02232,-2.47507 1.02231,-1.07612 2.47507,-1.07612 l 1.7756,0 q 1.07612,0 1.93702,0.64567 0.91469,0.64567 1.34515,1.61418 l 12.21395,30.45417 12.21395,-30.45417 q 0.43044,-0.96851 1.29134,-1.61418 0.9147,-0.64567 1.99082,-0.64567 l 1.7756,0 z"
       style="font-style:normal;font-variant:normal;font-weight:normal;font-stretch:normal;font-size:medium;line-height:93.99999976%;font-family:'Varela Round';-inkscape-font-specification:'Varela Round';text-align:start;letter-spacing:0px;word-spacing:0px;text-anchor:start;fill:#ffffff;fill-opacity:1;stroke:none"
       id="path4377"
       inkscape:connector-curvature="0" />
    <path
       d="m 236.23345,931.86845 q 4.51971,-1.93702 9.36224,-1.93702 5.4882,0 8.50134,3.33597 2.6903,2.90552 2.6903,7.2638 l 0,15.22709 q 0,1.02231 -0.75329,1.72179 -0.69947,0.69947 -1.72178,0.69947 -1.02232,0 -1.72179,-0.69947 -0.69948,-0.69948 -0.69948,-1.72179 l 0,-1.39895 q -1.45276,1.50656 -3.92784,2.7979 -2.42127,1.29135 -6.18769,1.29135 -3.7126,0 -6.18768,-2.15224 -2.58268,-2.25986 -2.58268,-5.91865 0,-3.98165 3.01313,-6.2415 3.28217,-2.47507 9.36223,-2.47507 l 6.51053,0 0,-0.43045 q 0,-3.605 -1.7756,-5.11157 -1.7756,-1.56037 -5.4344,-1.56037 -3.12075,0 -7.1562,1.29135 -0.43044,0.10761 -0.9685,0.10761 -0.53806,0 -1.12992,-0.53807 -0.59187,-0.59186 -0.59187,-1.77559 0,-1.18373 1.39895,-1.77559 z m 1.66799,17.97118 q 0,4.30447 5.70343,4.30447 2.52888,0 4.68111,-1.23753 2.20605,-1.23753 3.60501,-2.79791 l 0,-4.5197 -5.86485,0 q -3.82022,0 -5.97247,0.96851 -2.15223,0.9685 -2.15223,3.28216 z"
       style="font-style:normal;font-variant:normal;font-weight:normal;font-stretch:normal;font-size:medium;line-height:93.99999976%;font-family:'Varela Round';-inkscape-font-specification:'Varela Round';text-align:start;letter-spacing:0px;word-spacing:0px;text-anchor:start;fill:#ffffff;fill-opacity:1;stroke:none"
       id="path4379"
       inkscape:connector-curvature="0" />
    <path
       d="m 269.95297,934.02068 q 3.98164,-4.08925 9.20082,-4.08925 5.21917,0 8.93179,3.71261 4.08925,4.08925 4.08925,10.54597 0,6.56432 -4.08925,10.59977 -3.76642,3.65881 -8.9856,3.65881 -5.16537,0 -9.14701,-4.08925 l 0,13.72051 q 0,1.07612 -0.69948,1.77559 -0.69948,0.69949 -1.7756,0.69949 -1.0223,0 -1.72179,-0.69949 -0.69947,-0.69947 -0.69947,-1.77559 l 0,-35.45813 q 0,-1.02231 0.69947,-1.72178 0.69949,-0.69949 1.72179,-0.69949 1.07612,0 1.7756,0.69949 0.69948,0.69947 0.69948,1.72178 l 0,1.39896 z m 0,15.81895 q 3.6588,4.03545 8.50134,4.03545 6.13388,0 8.17851,-5.48821 0.64566,-1.8294 0.64566,-4.19686 0,-4.62732 -2.47507,-7.26381 -2.36746,-2.42126 -6.3491,-2.42126 -4.84254,0 -8.50134,4.03544 l 0,11.29925 z"
       style="font-style:normal;font-variant:normal;font-weight:normal;font-stretch:normal;font-size:medium;line-height:93.99999976%;font-family:'Varela Round';-inkscape-font-specification:'Varela Round';text-align:start;letter-spacing:0px;word-spacing:0px;text-anchor:start;fill:#ffffff;fill-opacity:1;stroke:none"
       id="path4381"
       inkscape:connector-curvature="0" />
    <path
       d="m 302.33659,945.91179 q 0.43045,3.65881 2.74411,5.81105 2.31366,2.15224 6.45671,2.15224 4.14306,0 6.94097,-1.39896 0.96851,-0.48425 1.66799,-0.48425 0.69947,0 1.34515,0.59186 0.64567,0.59187 0.64567,1.34515 0,1.39896 -1.18374,2.04463 -1.12992,0.59186 -2.04462,1.02232 -0.9147,0.43044 -1.99082,0.75328 -2.42127,0.69948 -5.59582,0.69948 -6.61813,0 -10.27694,-3.71261 -3.65881,-3.71262 -3.65881,-10.54597 0,-5.91866 3.06695,-9.84649 3.44357,-4.41209 9.79268,-4.41209 6.02627,0 9.52365,4.08925 3.28217,3.82022 3.28217,9.46985 0,1.02231 -0.69948,1.72179 -0.64567,0.69947 -1.77559,0.69947 l -18.24023,0 z m 7.90948,-11.83731 q -4.78873,0 -6.99477,4.25068 -0.8071,1.50657 -0.91471,3.60499 l 15.87276,0 q -0.21522,-3.82022 -2.79791,-6.02626 -2.15224,-1.82941 -5.16537,-1.82941 z"
       style="font-style:normal;font-variant:normal;font-weight:normal;font-stretch:normal;font-size:medium;line-height:93.99999976%;font-family:'Varela Round';-inkscape-font-specification:'Varela Round';text-align:start;letter-spacing:0px;word-spacing:0px;text-anchor:start;fill:#ffffff;fill-opacity:1;stroke:none"
       id="path4383"
       inkscape:connector-curvature="0" />
    <path
       d="m 330.70915,931.86845 q 4.51969,-1.93702 9.36223,-1.93702 5.48821,0 8.50134,3.33597 2.6903,2.90552 2.6903,7.2638 l 0,15.22709 q 0,1.02231 -0.75328,1.72179 -0.69948,0.69947 -1.7218,0.69947 -1.02231,0 -1.72179,-0.69947 -0.69947,-0.69948 -0.69947,-1.72179 l 0,-1.39895 q -1.45276,1.50656 -3.92783,2.7979 -2.42127,1.29135 -6.18769,1.29135 -3.71262,0 -6.18769,-2.15224 -2.58269,-2.25986 -2.58269,-5.91865 0,-3.98165 3.01314,-6.2415 3.28216,-2.47507 9.36224,-2.47507 l 6.51052,0 0,-0.43045 q 0,-3.605 -1.7756,-5.11157 -1.7756,-1.56037 -5.4344,-1.56037 -3.12075,0 -7.15619,1.29135 -0.43045,0.10761 -0.96851,0.10761 -0.53806,0 -1.12993,-0.53807 -0.59186,-0.59186 -0.59186,-1.77559 0,-1.18373 1.39896,-1.77559 z m 1.66798,17.97118 q 0,4.30447 5.70343,4.30447 2.52888,0 4.68112,-1.23753 2.20604,-1.23753 3.605,-2.79791 l 0,-4.5197 -5.86485,0 q -3.82023,0 -5.97246,0.96851 -2.15224,0.9685 -2.15224,3.28216 z"
       style="font-style:normal;font-variant:normal;font-weight:normal;font-stretch:normal;font-size:medium;line-height:93.99999976%;font-family:'Varela Round';-inkscape-font-specification:'Varela Round';text-align:start;letter-spacing:0px;word-spacing:0px;text-anchor:start;fill:#ffffff;fill-opacity:1;stroke:none"
       id="path4385"
       inkscape:connector-curvature="0" />
    <path
       d="m 380.0862,954.35934 q -3.98164,4.08925 -9.20081,4.08925 -5.16537,0 -8.93179,-3.65881 -4.08925,-4.03545 -4.08925,-10.59977 0,-6.45672 4.08925,-10.54597 3.71261,-3.71261 8.93179,-3.71261 5.21917,0 9.20081,4.08925 l 0,-13.18246 q 0,-1.07611 0.69948,-1.77559 0.69948,-0.69948 1.72179,-0.69948 1.07612,0 1.7756,0.69948 0.69947,0.69948 0.69947,1.77559 l 0,34.92007 q 0,1.02231 -0.69947,1.72179 -0.69948,0.69947 -1.7756,0.69947 -1.02231,0 -1.72179,-0.69947 -0.69948,-0.69948 -0.69948,-1.72179 l 0,-1.39895 z m 0,-15.81896 q -3.6588,-4.03544 -8.50134,-4.03544 -6.13388,0 -8.1247,5.4882 -0.69948,1.8294 -0.69948,4.19687 0,4.6273 2.52888,7.2638 2.31366,2.42127 6.2953,2.42127 4.84254,0 8.50134,-4.03545 l 0,-11.29925 z"
       style="font-style:normal;font-variant:normal;font-weight:normal;font-stretch:normal;font-size:medium;line-height:93.99999976%;font-family:'Varela Round';-inkscape-font-specification:'Varela Round';text-align:start;letter-spacing:0px;word-spacing:0px;text-anchor:start;fill:#ffffff;fill-opacity:1;stroke:none"
       id="path4387"
       inkscape:connector-curvature="0" />
    <path
       d="m 405.58265,929.93143 q 6.24149,0 10.00791,3.92783 3.76642,3.98164 3.76642,10.33075 0,6.3491 -3.76642,10.33074 -3.76642,3.92784 -10.00791,3.92784 -6.29529,0 -10.0079,-3.92784 -3.76642,-3.92783 -3.76642,-10.33074 0,-6.40291 3.76642,-10.33075 3.71261,-3.92783 10.0079,-3.92783 z m -6.02626,21.84522 q 1.29134,1.12992 2.85171,1.66798 1.61418,0.53806 3.12074,0.53806 1.56038,0 3.12076,-0.53806 1.61417,-0.53806 2.90552,-1.66798 2.90552,-2.63649 2.90552,-7.64045 0,-4.84254 -2.90552,-7.53284 -2.42127,-2.20603 -5.97247,-2.20603 -5.81104,0 -8.07089,5.21917 -0.80709,1.88321 -0.80709,4.57351 0,2.63649 0.80709,4.51969 0.80709,1.88322 2.04463,3.06695 z"
       style="font-style:normal;font-variant:normal;font-weight:normal;font-stretch:normal;font-size:medium;line-height:93.99999976%;font-family:'Varela Round';-inkscape-font-specification:'Varela Round';text-align:start;letter-spacing:0px;word-spacing:0px;text-anchor:start;fill:#ffffff;fill-opacity:1;stroke:none"
       id="path4389"
       inkscape:connector-curvature="0" />
    <path
       d="m 211.74754,1001.8162 q 0.43045,-0.2152 1.18373,-0.2152 0.80709,0 1.34515,0.6456 0.59187,0.5919 0.59187,1.399 0,1.4528 -1.18374,2.0446 -2.52888,1.399 -5.4344,2.3675 -2.85171,0.9685 -6.88716,0.9685 -3.98164,0 -7.42522,-1.2914 -3.44358,-1.3451 -5.97246,-3.8739 -5.38059,-5.27307 -5.38059,-14.15106 0,-8.87798 5.38059,-14.15096 5.21918,-5.16537 13.45149,-5.16537 3.98164,0 6.83335,0.9685 2.90552,0.96851 4.41209,1.82941 1.56037,0.80708 1.88321,1.34515 0.32284,0.48425 0.32284,1.29134 0,0.75328 -0.59187,1.39896 -0.53806,0.59186 -1.34515,0.59186 -0.75328,0 -1.18373,-0.21523 -2.15224,-1.12992 -4.41209,-1.82939 -2.25985,-0.69949 -5.64962,-0.69949 -3.33597,0 -6.08008,1.12993 -2.6903,1.12993 -4.5197,3.12074 -3.605,3.92784 -3.605,10.38455 0,6.45672 3.605,10.38456 3.92784,4.2507 10.815,4.2507 3.17455,0 5.4344,-0.6995 2.25985,-0.6995 4.41209,-1.8294 z"
       style="font-style:normal;font-variant:normal;font-weight:normal;font-stretch:normal;font-size:medium;line-height:93.99999976%;font-family:'Varela Round';-inkscape-font-specification:'Varela Round';text-align:start;letter-spacing:0px;word-spacing:0px;text-anchor:start;fill:#ffffff;fill-opacity:1;stroke:none"
       id="path4391"
       inkscape:connector-curvature="0" />
    <path
       d="m 232.60491,980.50902 q 6.24149,0 10.00791,3.92784 3.76642,3.98164 3.76642,10.33074 0,6.3491 -3.76642,10.3308 -3.76642,3.9278 -10.00791,3.9278 -6.2953,0 -10.0079,-3.9278 -3.76642,-3.9279 -3.76642,-10.3308 0,-6.40291 3.76642,-10.33074 3.7126,-3.92784 10.0079,-3.92784 z m -6.02626,21.84528 q 1.29134,1.1299 2.85171,1.6679 1.61418,0.5381 3.12074,0.5381 1.56037,0 3.12075,-0.5381 1.61418,-0.538 2.90553,-1.6679 2.90551,-2.63654 2.90551,-7.6405 0,-4.84254 -2.90551,-7.53284 -2.42127,-2.20604 -5.97247,-2.20604 -5.81104,0 -8.07089,5.21918 -0.80709,1.88321 -0.80709,4.5735 0,2.6365 0.80709,4.5197 0.80709,1.8832 2.04463,3.067 z"
       style="font-style:normal;font-variant:normal;font-weight:normal;font-stretch:normal;font-size:medium;line-height:93.99999976%;font-family:'Varela Round';-inkscape-font-specification:'Varela Round';text-align:start;letter-spacing:0px;word-spacing:0px;text-anchor:start;fill:#ffffff;fill-opacity:1;stroke:none"
       id="path4393"
       inkscape:connector-curvature="0" />
    <path
       d="m 253.61193,971.41582 q 0,-1.07612 0.69948,-1.7756 0.69948,-0.69947 1.72179,-0.69947 1.07612,0 1.7756,0.69947 0.69948,0.69948 0.69948,1.7756 l 0,34.91998 q 0,1.0224 -0.69948,1.7219 -0.69948,0.6994 -1.7756,0.6994 -1.02231,0 -1.72179,-0.6994 -0.69948,-0.6995 -0.69948,-1.7219 l 0,-34.91998 z"
       style="font-style:normal;font-variant:normal;font-weight:normal;font-stretch:normal;font-size:medium;line-height:93.99999976%;font-family:'Varela Round';-inkscape-font-specification:'Varela Round';text-align:start;letter-spacing:0px;word-spacing:0px;text-anchor:start;fill:#ffffff;fill-opacity:1;stroke:none"
       id="path4395"
       inkscape:connector-curvature="0" />
    <path
       d="m 268.49601,982.44604 q 4.5197,-1.93702 9.36223,-1.93702 5.48821,0 8.50134,3.33598 2.6903,2.90552 2.6903,7.2638 l 0,15.227 q 0,1.0224 -0.75328,1.7219 -0.69948,0.6994 -1.72179,0.6994 -1.02231,0 -1.72179,-0.6994 -0.69948,-0.6995 -0.69948,-1.7219 l 0,-1.3988 q -1.45276,1.5065 -3.92783,2.7978 -2.42127,1.2914 -6.18769,1.2914 -3.71261,0 -6.18769,-2.1523 -2.58268,-2.2598 -2.58268,-5.9186 0,-3.98165 3.01314,-6.2415 3.28216,-2.47508 9.36223,-2.47508 l 6.51052,0 0,-0.43044 q 0,-3.605 -1.7756,-5.11157 -1.77559,-1.56037 -5.4344,-1.56037 -3.12074,0 -7.15619,1.29134 -0.43045,0.10762 -0.96851,0.10762 -0.53805,0 -1.12992,-0.53807 -0.59187,-0.59186 -0.59187,-1.77559 0,-1.18374 1.39896,-1.7756 z m 1.66798,17.97116 q 0,4.3045 5.70343,4.3045 2.52888,0 4.68112,-1.2375 2.20605,-1.2376 3.605,-2.7979 l 0,-4.51974 -5.86485,0 q -3.82022,0 -5.97246,0.96851 -2.15224,0.9685 -2.15224,3.28213 z"
       style="font-style:normal;font-variant:normal;font-weight:normal;font-stretch:normal;font-size:medium;line-height:93.99999976%;font-family:'Varela Round';-inkscape-font-specification:'Varela Round';text-align:start;letter-spacing:0px;word-spacing:0px;text-anchor:start;fill:#ffffff;fill-opacity:1;stroke:none"
       id="path4397"
       inkscape:connector-curvature="0" />
    <path
       d="m 302.21553,984.59828 q 3.98164,-4.08926 9.20082,-4.08926 5.21918,0 8.93178,3.71262 4.08926,4.08925 4.08926,10.54596 0,6.5643 -4.08926,10.5998 -3.76641,3.6588 -8.98559,3.6588 -5.16537,0 -9.14701,-4.0892 l 0,1.3988 q 0,1.0224 -0.69948,1.7219 -0.69948,0.6994 -1.7756,0.6994 -1.02231,0 -1.72178,-0.6994 -0.69949,-0.6995 -0.69949,-1.7219 l 0,-34.91998 q 0,-1.07612 0.69949,-1.7756 0.69947,-0.69947 1.72178,-0.69947 1.07612,0 1.7756,0.69947 0.69948,0.69948 0.69948,1.7756 l 0,13.18246 z m 0,15.81892 q 3.65881,4.0355 8.50134,4.0355 6.13388,0 8.1785,-5.48823 0.64568,-1.8294 0.64568,-4.19687 0,-4.62731 -2.47508,-7.2638 -2.36746,-2.42126 -6.3491,-2.42126 -4.84253,0 -8.50134,4.03544 l 0,11.29922 z"
       style="font-style:normal;font-variant:normal;font-weight:normal;font-stretch:normal;font-size:medium;line-height:93.99999976%;font-family:'Varela Round';-inkscape-font-specification:'Varela Round';text-align:start;letter-spacing:0px;word-spacing:0px;text-anchor:start;fill:#ffffff;fill-opacity:1;stroke:none"
       id="path4399"
       inkscape:connector-curvature="0" />
    <path
       d="m 343.36951,980.50902 q 6.24149,0 10.00791,3.92784 3.76642,3.98164 3.76642,10.33074 0,6.3491 -3.76642,10.3308 -3.76642,3.9278 -10.00791,3.9278 -6.29529,0 -10.00791,-3.9278 -3.76642,-3.9279 -3.76642,-10.3308 0,-6.40291 3.76642,-10.33074 3.71262,-3.92784 10.00791,-3.92784 z m -6.02627,21.84528 q 1.29135,1.1299 2.85172,1.6679 1.61417,0.5381 3.12074,0.5381 1.56038,0 3.12075,-0.5381 1.61418,-0.538 2.90552,-1.6679 2.90552,-2.63654 2.90552,-7.6405 0,-4.84254 -2.90552,-7.53284 -2.42127,-2.20604 -5.97246,-2.20604 -5.81104,0 -8.0709,5.21918 -0.80708,1.88321 -0.80708,4.5735 0,2.6365 0.80708,4.5197 0.8071,1.8832 2.04463,3.067 z"
       style="font-style:normal;font-variant:normal;font-weight:normal;font-stretch:normal;font-size:medium;line-height:93.99999976%;font-family:'Varela Round';-inkscape-font-specification:'Varela Round';text-align:start;letter-spacing:0px;word-spacing:0px;text-anchor:start;fill:#ffffff;fill-opacity:1;stroke:none"
       id="path4401"
       inkscape:connector-curvature="0" />
    <path
       d="m 368.84243,985.56679 q 3.76642,-5.05777 8.44753,-5.05777 l 0.26903,0 q 1.02232,0 1.66799,0.69949 0.69948,0.69947 0.69948,1.77559 0,1.02231 -0.69948,1.66798 -0.69948,0.59187 -1.7756,0.59187 l -0.26903,0 q -2.69029,0 -4.84254,1.34515 -2.09842,1.29134 -3.49738,3.38977 l 0,16.35693 q 0,1.0224 -0.75328,1.7219 -0.69948,0.6994 -1.72179,0.6994 -1.02232,0 -1.72179,-0.6994 -0.69948,-0.6995 -0.69948,-1.7219 l 0,-23.08267 q 0,-1.02231 0.69948,-1.72179 0.69947,-0.75329 1.72179,-0.75329 1.02231,0 1.72179,0.75329 0.75328,0.69948 0.75328,1.72179 l 0,2.31366 z"
       style="font-style:normal;font-variant:normal;font-weight:normal;font-stretch:normal;font-size:medium;line-height:93.99999976%;font-family:'Varela Round';-inkscape-font-specification:'Varela Round';text-align:start;letter-spacing:0px;word-spacing:0px;text-anchor:start;fill:#ffffff;fill-opacity:1;stroke:none"
       id="path4403"
       inkscape:connector-curvature="0" />
    <path
       d="m 385.77618,982.44604 q 4.5197,-1.93702 9.36224,-1.93702 5.4882,0 8.50134,3.33598 2.69029,2.90552 2.69029,7.2638 l 0,15.227 q 0,1.0224 -0.75328,1.7219 -0.69948,0.6994 -1.72179,0.6994 -1.02232,0 -1.72179,-0.6994 -0.69948,-0.6995 -0.69948,-1.7219 l 0,-1.3988 q -1.45276,1.5065 -3.92784,2.7978 -2.42126,1.2914 -6.18768,1.2914 -3.71261,0 -6.18768,-2.1523 -2.58269,-2.2598 -2.58269,-5.9186 0,-3.98165 3.01313,-6.2415 3.28217,-2.47508 9.36224,-2.47508 l 6.51052,0 0,-0.43044 q 0,-3.605 -1.7756,-5.11157 -1.77559,-1.56037 -5.4344,-1.56037 -3.12074,0 -7.15618,1.29134 -0.43046,0.10762 -0.96851,0.10762 -0.53807,0 -1.12993,-0.53807 -0.59186,-0.59186 -0.59186,-1.77559 0,-1.18374 1.39895,-1.7756 z m 1.66798,17.97116 q 0,4.3045 5.70343,4.3045 2.52888,0 4.68113,-1.2375 2.20603,-1.2376 3.60499,-2.7979 l 0,-4.51974 -5.86485,0 q -3.82022,0 -5.97246,0.96851 -2.15224,0.9685 -2.15224,3.28213 z"
       style="font-style:normal;font-variant:normal;font-weight:normal;font-stretch:normal;font-size:medium;line-height:93.99999976%;font-family:'Varela Round';-inkscape-font-specification:'Varela Round';text-align:start;letter-spacing:0px;word-spacing:0px;text-anchor:start;fill:#ffffff;fill-opacity:1;stroke:none"
       id="path4405"
       inkscape:connector-curvature="0" />
    <path
       d="m 424.34454,1004.7217 q 1.45276,0 2.04463,-0.2152 0.64567,-0.2691 1.34515,-0.2691 0.75328,0 1.34515,0.5381 0.59186,0.538 0.59186,1.6142 0,1.0761 -1.07612,1.5604 -2.31365,1.0761 -3.98164,1.0761 -1.61418,0 -2.95933,-0.1615 -1.34515,-0.1613 -2.58269,-0.9146 -2.95932,-1.7218 -2.95932,-6.0263 l 0,-16.67985 -3.82022,0 q -1.02232,0 -1.02232,-1.02231 0,-0.48425 0.48426,-0.91471 l 7.3176,-7.15619 q 0.48426,-0.48425 0.91471,-0.48425 0.43044,0 0.69947,0.32284 0.32284,0.32283 0.32284,0.75328 l 0,4.30448 6.08007,0 q 0.91471,0 1.50657,0.59186 0.59187,0.59187 0.59187,1.50657 0,0.9147 -0.59187,1.50656 -0.59186,0.59187 -1.50657,0.59187 l -6.08007,0 0,16.24935 q 0,2.0447 1.23754,2.7979 0.69947,0.4305 2.09843,0.4305 z"
       style="font-style:normal;font-variant:normal;font-weight:normal;font-stretch:normal;font-size:medium;line-height:93.99999976%;font-family:'Varela Round';-inkscape-font-specification:'Varela Round';text-align:start;letter-spacing:0px;word-spacing:0px;text-anchor:start;fill:#ffffff;fill-opacity:1;stroke:none"
       id="path4407"
       inkscape:connector-curvature="0" />
    <path
       d="m 435.30709,983.25313 q 0,-1.07612 0.69948,-1.7756 0.69947,-0.69948 1.72179,-0.69948 1.07612,0 1.77559,0.69948 0.69949,0.69948 0.69949,1.7756 l 0,23.08267 q 0,1.0224 -0.69949,1.7219 -0.69947,0.6994 -1.77559,0.6994 -1.02232,0 -1.72179,-0.6994 -0.69948,-0.6995 -0.69948,-1.7219 l 0,-23.08267 z m 5.3806,-10.54597 q 0,1.12993 -0.8071,1.93702 -0.80708,0.80708 -1.93701,0.80708 l -0.32283,0 q -1.12993,0 -1.93702,-0.80708 -0.80708,-0.80709 -0.80708,-1.93702 l 0,-0.21522 q 0,-1.12993 0.80708,-1.93701 0.80709,-0.8071 1.93702,-0.8071 l 0.32283,0 q 1.12993,0 1.93701,0.8071 0.8071,0.80708 0.8071,1.93701 l 0,0.21522 z"
       style="font-style:normal;font-variant:normal;font-weight:normal;font-stretch:normal;font-size:medium;line-height:93.99999976%;font-family:'Varela Round';-inkscape-font-specification:'Varela Round';text-align:start;letter-spacing:0px;word-spacing:0px;text-anchor:start;fill:#ffffff;fill-opacity:1;stroke:none"
       id="path4409"
       inkscape:connector-curvature="0" />
    <path
       d="m 467.20393,982.17701 q 0.64567,-1.39896 2.36746,-1.39896 0.86089,0 1.56037,0.75329 0.69948,0.69948 0.69948,1.34515 0,0.8609 -0.26903,1.50656 l -9.36224,22.38325 q -0.37664,0.8071 -1.18373,1.399 -0.75328,0.5918 -1.77559,0.5918 l -0.53807,0 q -1.0223,0 -1.8294,-0.5918 -0.75328,-0.5919 -1.12992,-1.399 l -9.36224,-22.38325 q -0.26903,-0.64566 -0.26903,-1.39895 0,-0.75328 0.69948,-1.45276 0.69948,-0.75329 1.56038,-0.75329 1.72178,0 2.36745,1.39896 l 8.23232,20.87669 8.23231,-20.87669 z"
       style="font-style:normal;font-variant:normal;font-weight:normal;font-stretch:normal;font-size:medium;line-height:93.99999976%;font-family:'Varela Round';-inkscape-font-specification:'Varela Round';text-align:start;letter-spacing:0px;word-spacing:0px;text-anchor:start;fill:#ffffff;fill-opacity:1;stroke:none"
       id="path4411"
       inkscape:connector-curvature="0" />
    <path
       d="m 489.12901,980.50902 q 6.2415,0 10.00792,3.92784 3.76642,3.98164 3.76642,10.33074 0,6.3491 -3.76642,10.3308 -3.76642,3.9278 -10.00792,3.9278 -6.29528,0 -10.0079,-3.9278 -3.76642,-3.9279 -3.76642,-10.3308 0,-6.40291 3.76642,-10.33074 3.71262,-3.92784 10.0079,-3.92784 z m -6.02626,21.84528 q 1.29135,1.1299 2.85172,1.6679 1.61417,0.5381 3.12074,0.5381 1.56038,0 3.12075,-0.5381 1.61418,-0.538 2.90552,-1.6679 2.90552,-2.63654 2.90552,-7.6405 0,-4.84254 -2.90552,-7.53284 -2.42127,-2.20604 -5.97247,-2.20604 -5.81103,0 -8.07089,5.21918 -0.80708,1.88321 -0.80708,4.5735 0,2.6365 0.80708,4.5197 0.8071,1.8832 2.04463,3.067 z"
       style="font-style:normal;font-variant:normal;font-weight:normal;font-stretch:normal;font-size:medium;line-height:93.99999976%;font-family:'Varela Round';-inkscape-font-specification:'Varela Round';text-align:start;letter-spacing:0px;word-spacing:0px;text-anchor:start;fill:#ffffff;fill-opacity:1;stroke:none"
       id="path4413"
       inkscape:connector-curvature="0" />
  </g>
</svg>
