<?xml version="1.0" encoding="UTF-8" standalone="no"?>
<svg
   xmlns:dc="http://purl.org/dc/elements/1.1/"
   xmlns:cc="http://creativecommons.org/ns#"
   xmlns:rdf="http://www.w3.org/1999/02/22-rdf-syntax-ns#"
   xmlns:svg="http://www.w3.org/2000/svg"
   xmlns="http://www.w3.org/2000/svg"
   version="1.1"
   id="svg5455"
   viewBox="0 0 425.19685 425.19685"
   height="120mm"
   width="120mm">
  <defs
     id="defs5457" />
  <metadata
     id="metadata5460">
    <rdf:RDF>
      <cc:Work
         rdf:about="">
        <dc:format>image/svg+xml</dc:format>
        <dc:type
           rdf:resource="http://purl.org/dc/dcmitype/StillImage" />
        <dc:title></dc:title>
      </cc:Work>
    </rdf:RDF>
  </metadata>
  <g
     transform="translate(0,-627.16535)"
     id="layer1">
    <path
       id="path3834-6-6-9-0-4-2-8-7-95-6"
       d="m 199.58129,648.48122 c 11.28075,0.99962 19.38737,83.74049 25.41675,100.79037 l -20.59638,78.87936 14.46125,93.34062 -19.71987,86.76733 c 0,0 9.64087,0.8764 39.43975,10.9556 29.79887,10.079 51.27162,14.8993 51.27162,14.8993 l 22.34912,-79.7559 -16.65225,-96.40807 19.71975,-93.34062 c -4.93112,-12.02037 -16.34737,-93.96874 -24.97837,-91.58774 0,0 -17.09063,-7.44975 -38.56325,-14.89938 -21.47275,-7.44975 -52.14812,-9.64087 -52.14812,-9.64087 z"
       style="fill:#e9ddaf;fill-opacity:1;stroke:#333333;stroke-width:8;stroke-linecap:round;stroke-linejoin:round;stroke-miterlimit:4;stroke-dasharray:none;stroke-opacity:1" />
    <path
       id="path3834-2-6-3-3-9-8-8-6"
       d="m 22.48605,648.97422 c -4.783624,-0.0125 -7.778374,0.21912 -8.271374,0.3835 0,0 13.146624,22.78737 20.596248,48.64224 7.449876,25.85488 10.955626,44.69838 10.955626,44.69838 0,0 -9.64088,22.34912 -14.461376,43.38362 -4.820374,21.0345 -10.078999,40.31612 -10.078999,40.31612 0,0 10.078999,28.046 16.214125,52.58625 6.13512,24.54024 6.57337,42.50724 6.57337,42.50724 0,0 -7.0115,17.967 -13.146621,42.50723 -6.135124,24.5403 -8.764374,53.9009 -8.764374,53.9009 0,0 16.214125,-3.5057 49.956995,2.1911 33.74275,5.6969 56.53012,10.5173 56.53012,10.5173 l 2.62938,-93.34065 -21.47275,-81.50862 28.046,-104.73437 c -3.89175,-27.1345 -15.8945,-52.66775 -24.9785,-78.44124 0,0 -32.42812,-15.77588 -55.2155,-20.158 -14.24212,-2.73888 -27.139746,-3.42963 -35.11237,-3.451 z"
       style="fill:#e9ddaf;fill-opacity:1;stroke:#333333;stroke-width:8;stroke-linecap:round;stroke-linejoin:round;stroke-miterlimit:4;stroke-dasharray:none;stroke-opacity:1" />
    <path
       id="path3834-6-2-4-6-4-93-9-0-5"
       d="m 199.58129,648.48122 c 0,0 -5.69688,6.13512 -38.56325,14.023 -32.86637,7.888 -48.20412,10.079 -48.20412,10.079 9.084,25.77349 21.08675,51.30674 24.9785,78.44124 l -28.046,104.73437 21.47275,81.50862 -2.62938,93.34065 c 0,0 22.34925,-4.8204 42.06913,-10.9555 19.71974,-6.135 28.48412,-11.3937 28.48412,-11.3937 l 19.71987,-85.01445 -14.46125,-95.0935 20.59638,-78.87936 c -6.02938,-17.04988 -14.136,-99.79075 -25.41675,-100.79037 z"
       style="fill:#786721;fill-opacity:1;stroke:#333333;stroke-width:8;stroke-linecap:round;stroke-linejoin:round;stroke-miterlimit:4;stroke-dasharray:none;stroke-opacity:1" />
    <path
       id="path3834-6-6-3-7-6-5-7-2-3"
       d="m 382.75677,645.41372 c 0,0 -42.50724,15.77587 -55.65374,18.40512 -13.14663,2.62938 -36.81037,9.20263 -36.81037,9.20263 8.631,-2.381 20.04725,79.56737 24.97837,91.58774 l -19.71975,93.34062 16.65225,96.40807 -22.34912,79.7559 c 0,0 22.78737,-4.8203 45.57474,-10.079 22.78738,-5.2586 46.45125,-14.023 46.45125,-14.023 0,0 -1.31475,-8.7644 7.44962,-42.9455 8.76438,-34.18098 15.33775,-49.08048 15.33775,-49.08048 0,0 -0.8765,-7.88787 -6.57337,-34.61925 -5.69675,-26.73137 -17.52875,-52.14812 -17.52875,-52.14812 0,0 3.06762,-18.40512 11.832,-41.63074 8.76437,-23.22563 17.96687,-46.88937 17.96687,-46.88937 0,0 -8.32612,-26.73138 -13.1465,-52.14813 -4.82037,-25.41662 -14.46125,-45.13649 -14.46125,-45.13649 z"
       style="fill:#786721;fill-opacity:1;stroke:#333333;stroke-width:7.99999952;stroke-linecap:round;stroke-linejoin:round;stroke-miterlimit:4;stroke-dasharray:none;stroke-opacity:1" />
    <path
       id="path10829-5-9-9-3-3"
       d="m 46.3393,740.05159 92.02599,8.32612 87.2055,-1.75287 90.27311,15.33762 95.0935,-21.91087"
       style="fill:none;stroke:#333333;stroke-width:8;stroke-linecap:round;stroke-linejoin:round;stroke-miterlimit:4;stroke-dasharray:none;stroke-opacity:1" />
    <path
       id="path10831-0-4-3-9-2"
       d="m 21.798926,823.75133 88.520244,29.36075 94.65537,-27.60788 91.14949,29.799 85.01449,-26.73137"
       style="fill:none;stroke:#333333;stroke-width:8;stroke-linecap:round;stroke-linejoin:round;stroke-miterlimit:4;stroke-dasharray:none;stroke-opacity:1" />
    <path
       id="path10833-6-10-3-9-2"
       d="m 44.19142,918.84482 87.2055,15.77588 87.64374,-15.77588 93.34062,32.86648 92.46424,-36.37223"
       style="fill:none;stroke:#333333;stroke-width:8;stroke-linecap:round;stroke-linejoin:round;stroke-miterlimit:4;stroke-dasharray:none;stroke-opacity:1" />
    <rect
       y="682.7616"
       x="172.7348"
       height="118.2397"
       width="242.24718"
       id="rect6110-8-9"
       style="color:#000000;display:inline;overflow:visible;visibility:visible;fill:#d41112;fill-opacity:1;fill-rule:nonzero;stroke:none;stroke-width:8;marker:none;enable-background:accumulate" />
    <g
       style="fill:#ffffff;fill-opacity:1"
       id="g4027-0-0-7"
       transform="matrix(1.2499999,0,0,1.2499999,2138.7327,1231.7385)">
      <path
         style="fill:#ffffff;fill-opacity:1"
         id="path3369-5-4-5-6-0-8-8-0-4-7-6"
         d="m -1473.3275,-426.88513 c 6.1244,0.49141 12.9677,2.11124 16.6533,7.49856 3.085,4.24068 3.1487,9.7099 2.7028,14.72413 -0.01,1.21941 -1.5289,1.67444 -2.5208,1.71084 -3.3488,0.009 -6.725,0.24568 -10.0557,-0.17292 -2.7209,-1.43784 -0.6279,-5.44192 -2.5207,-7.53497 -0.9646,-1.47423 -2.7574,-1.83823 -4.2953,-2.38424 -0.064,-4.6138 -0.1274,-9.22759 0.036,-13.8414 z" />
      <path
         style="fill:#ffffff;fill-opacity:1"
         id="path3377-7-0-3-3-0-0-8-89-6-79-1"
         d="m -1541.4515,-426.06611 c 10.2559,-0.22751 20.5209,0.0273 30.7859,-0.10921 1.547,0.11831 3.5582,-0.48231 4.4409,1.23763 0.4732,4.14969 0.1183,8.35397 0.2002,12.53097 -12.1214,-0.19109 -24.2793,0.4368 -36.3826,-0.35492 -0.4732,-4.04957 -0.5642,-8.18107 -0.1546,-12.23975 0.273,-0.26391 0.8281,-0.79172 1.1102,-1.06472 z" />
      <path
         style="fill:#ffffff;fill-opacity:1"
         id="path3387-7-2-0-6-8-5-5-2-1-0-9"
         d="m -1491.992,-421.85273 c 3.9495,-3.64917 9.5188,-4.66839 14.715,-4.9323 -0.091,4.56831 0.055,9.1457 -0.082,13.7231 -3.2488,0.66432 -5.2872,3.66736 -5.2417,6.89793 -0.027,9.70082 -0.082,19.41982 0.045,29.12972 0.082,3.23967 2.1021,5.90603 5.2599,6.74324 0.018,4.4591 -0.036,8.9273 0,13.3955 -5.724,-0.0455 -11.9122,-1.52884 -15.8616,-5.94244 -2.8484,-3.04856 -3.7311,-7.36204 -3.8039,-11.40254 0.01,-11.85754 0,-23.71509 0,-35.56355 0.036,-4.44089 1.5288,-9.07288 4.9687,-12.04866 z" />
      <path
         style="fill:#ffffff;fill-opacity:1"
         id="path3389-0-1-6-4-8-4-8-53-1-2-4"
         d="m -1445.2899,-425.6748 c 2.7847,-0.63702 5.6513,-0.49142 8.4905,-0.48231 9.1002,0.0546 18.1913,-0.0546 27.2915,0.0546 1.3832,4.42269 0.4914,9.1457 0.6552,13.7049 -10.2468,0.0182 -20.4845,-0.0273 -30.7222,0.0182 -1.9111,0.0182 -3.813,-0.19111 -5.6876,-0.48232 -0.3368,-4.268 -0.3276,-8.55419 -0.027,-12.81307 z" />
      <path
         style="fill:#ffffff;fill-opacity:1"
         id="path3407-0-6-8-7-2-5-7-2-9-3-1"
         d="m -1525.1804,-407.93852 c 5.542,-0.009 11.0931,-0.0819 16.6351,0.0273 -5.5693,10.84743 -11.2478,21.62204 -16.9627,32.3876 -5.4692,-0.0728 -10.9384,0.0182 -16.4076,-0.0637 5.3418,-10.90202 11.2023,-21.54925 16.7352,-32.3512 z" />
      <path
         style="fill:#ffffff;fill-opacity:1"
         id="path3409-8-0-3-9-7-2-6-5-2-2-0"
         d="m -1428.1269,-407.62912 c 5.5602,-0.78263 11.3116,-0.11831 16.9446,-0.3276 -5.6694,10.76554 -11.3753,21.52195 -16.9173,32.36028 -5.5602,0.0455 -11.1204,0.0546 -16.6806,0.0364 5.542,-10.69273 11.1295,-21.36725 16.6533,-32.06908 z" />
      <path
         style="fill:#ffffff;fill-opacity:1"
         id="path3413-2-7-8-2-2-2-4-9-4-8-73"
         d="m -1477.7047,-393.0415 c 0.082,-1.27403 1.1011,-2.09304 2.3569,-1.86555 6.3156,-0.13649 12.6311,-0.1092 18.9466,-0.0273 0.9828,-0.0273 2.6027,0.41861 2.4662,1.71084 0.2548,6.31553 0,12.64929 0.1001,18.98301 0.1365,4.6684 -1.5198,9.5916 -5.178,12.65836 -3.9222,3.46717 -9.3095,4.57741 -14.4056,4.69569 0.018,-4.45908 0,-8.90909 0,-13.35909 1.7654,-0.91 4.1406,-1.53792 4.8413,-3.63096 0.8463,-2.43884 0.4004,-5.07792 0.5369,-7.59864 -3.0759,0.0455 -6.1609,0.0637 -9.2367,-0.0182 -0.8645,-3.77661 -0.8281,-7.72609 -0.4277,-11.54817 z" />
      <path
         style="fill:#ffffff;fill-opacity:1"
         id="path3417-4-0-2-5-1-9-3-5-4-7-5"
         d="m -1544.2817,-371.13734 c 11.8121,0.0455 23.615,0.0364 35.418,0.009 1.4378,-0.0637 2.8574,0.24569 4.2497,0.6006 0.1456,3.80388 0.4186,7.65326 0.01,11.44804 -0.3003,2.06576 -2.7664,1.50153 -4.2589,1.66533 -11.6664,-0.13649 -23.3328,0.22751 -34.9811,-0.2002 -0.9373,-4.45 -0.4095,-9.01829 -0.4368,-13.52288 z" />
      <path
         style="fill:#ffffff;fill-opacity:1"
         id="path3419-6-3-5-8-1-2-3-6-2-1-0"
         d="m -1446.7459,-371.13734 c 13.0861,0.28209 26.2177,-0.43682 39.2765,0.37309 0.091,4.32259 0.1183,8.65428 -0.027,12.98599 -4.2862,0.60972 -8.627,0.273 -12.9314,0.35489 -8.6725,-0.0637 -17.345,0.13651 -26.0084,-0.1274 -0.6643,-4.5046 -0.3731,-9.06379 -0.3094,-13.58657 z" />
    </g>
    <g
       style="fill:#3d3d3d;fill-opacity:1"
       transform="matrix(0.61336934,0,0,0.61336934,1564.8875,1305.6999)"
       id="g5284-8-0">
      <path
         style="display:inline;fill:#3d3d3d;fill-opacity:1;stroke:#ffffff;stroke-width:6.40000057;stroke-linecap:round;stroke-linejoin:round;stroke-miterlimit:4;stroke-dasharray:none;stroke-opacity:1"
         d="m -2168.2849,-1022.6143 c -27.2375,-0.01 -54.4994,10.3592 -75.2668,31.1266 -37.2521,37.2521 -40.9881,95.28272 -11.4183,136.83179 l -24.3069,24.33816 25.089,25.05766 24.3069,-24.30688 c 41.549,29.56985 99.5797,25.83383 136.8317,-11.41829 41.5349,-41.53482 41.5349,-108.93634 0,-150.47114 -20.7674,-20.7674 -47.9979,-31.1524 -75.2356,-31.1579 z m -2.1272,17.7375 c 23.4009,-0.5521 46.9714,8.1179 64.8184,25.9649 34.6123,34.61232 34.6436,90.76981 0.031,125.38218 -34.6124,34.61237 -90.8324,34.61237 -125.4448,0 -34.6124,-34.61236 -34.6124,-90.80114 0,-125.41348 16.7653,-16.7654 38.6124,-25.4151 60.5951,-25.9336 z"
         id="path1736-2-7-5-1-3-3" />
      <path
         style="display:inline;fill:#3d3d3d;fill-opacity:1;stroke:#ffffff;stroke-width:6.40000057;stroke-linecap:round;stroke-linejoin:round;stroke-miterlimit:4;stroke-dasharray:none;stroke-opacity:1"
         d="m -2279.2769,-830.31775 c 0,0 -19.2927,-5.79626 -26.5905,1.50157 l -83.2753,83.27532 c -7.843,7.84303 -7.843,20.46809 0,28.31111 l 21.8355,21.8668 c 7.843,7.84305 20.4681,7.84305 28.3111,0 l 83.3066,-83.2753 c 7.298,-7.29799 1.5016,-26.62184 1.5016,-26.62184 z"
         id="path1736-6-1-5-2-1-8-0" />
    </g>
    <g
       id="text3888-3-5-0-5-7-1-2-5-1-4-7"
       style="font-style:normal;font-variant:normal;font-weight:normal;font-stretch:normal;font-size:62.59554291px;line-height:93.99999976%;font-family:'Varela Round';-inkscape-font-specification:'Varela Round';text-align:center;letter-spacing:0px;word-spacing:0px;text-anchor:middle;fill:#333333;fill-opacity:1;stroke:#333333;stroke-width:12.00000095;stroke-linecap:round;stroke-linejoin:round;stroke-miterlimit:4;stroke-dasharray:none;stroke-opacity:1">
      <path
         id="path9822"
         style="font-style:normal;font-variant:normal;font-weight:normal;font-stretch:normal;line-height:93.99999976%;font-family:'Varela Round';-inkscape-font-specification:'Varela Round';text-align:center;text-anchor:middle;fill:#333333;fill-opacity:1;stroke:#333333;stroke-width:12.00000095;stroke-linecap:round;stroke-linejoin:round;stroke-miterlimit:4;stroke-dasharray:none;stroke-opacity:1"
         d="m 116.9346,890.80356 q 1.69008,0 2.87939,1.25191 1.18932,1.18932 1.18932,2.8794 l 0,37.36954 q 0,1.18931 -0.81375,2.00305 -0.81374,0.81375 -2.00305,0.81375 -1.18932,0 -2.06566,-0.81375 -0.81374,-0.81374 -0.81374,-2.00305 l 0,-35.55427 -14.45957,35.74205 q -0.50076,1.18932 -1.564888,1.94046 -1.064124,0.68856 -2.441226,0.68856 -1.377102,0 -2.441226,-0.68856 -1.064124,-0.75114 -1.564889,-1.94046 l -14.45957,-35.74205 0,35.55427 q 0,1.18931 -0.876338,2.00305 -0.813742,0.81375 -2.003057,0.81375 -1.189315,0 -2.003057,-0.81375 -0.813742,-0.81374 -0.813742,-2.00305 l 0,-37.36954 q 0,-1.69008 1.189315,-2.8794 1.189315,-1.25191 2.879395,-1.25191 l 2.065653,0 q 1.251911,0 2.253439,0.75115 1.064125,0.75114 1.564889,1.87786 l 14.209188,35.42908 14.209184,-35.42908 q 0.50077,-1.12672 1.5023,-1.87786 1.06412,-0.75115 2.31603,-0.75115 l 2.06566,0 z" />
      <path
         id="path9824"
         style="font-style:normal;font-variant:normal;font-weight:normal;font-stretch:normal;line-height:93.99999976%;font-family:'Varela Round';-inkscape-font-specification:'Varela Round';text-align:center;text-anchor:middle;fill:#333333;fill-opacity:1;stroke:#333333;stroke-width:12.00000095;stroke-linecap:round;stroke-linejoin:round;stroke-miterlimit:4;stroke-dasharray:none;stroke-opacity:1"
         d="m 132.52578,904.51198 q 5.25802,-2.25343 10.89162,-2.25343 6.38475,0 9.8901,3.88092 3.12977,3.38016 3.12977,8.4504 l 0,17.71454 q 0,1.18931 -0.87633,2.00305 -0.81375,0.81375 -2.00306,0.81375 -1.18932,0 -2.00306,-0.81375 -0.81374,-0.81374 -0.81374,-2.00305 l 0,-1.62749 q -1.69008,1.75268 -4.56948,3.25497 -2.81679,1.50229 -7.19848,1.50229 -4.3191,0 -7.19849,-2.50382 -3.00459,-2.62901 -3.00459,-6.88551 0,-4.63207 3.50535,-7.26108 3.81833,-2.8794 10.89163,-2.8794 l 7.57406,0 0,-0.50076 q 0,-4.1939 -2.06565,-5.94658 -2.06566,-1.81527 -6.32215,-1.81527 -3.63054,0 -8.32521,1.50229 -0.50077,0.1252 -1.12672,0.1252 -0.62596,0 -1.31451,-0.62596 -0.68855,-0.68855 -0.68855,-2.06565 0,-1.3771 1.62749,-2.06566 z m 1.94046,20.90692 q 0,5.00764 6.63513,5.00764 2.94199,0 5.44581,-1.4397 2.56642,-1.4397 4.1939,-3.25497 l 0,-5.25802 -6.82291,0 q -4.44429,0 -6.94811,1.12672 -2.50382,1.12672 -2.50382,3.81833 z" />
      <path
         id="path9826"
         style="font-style:normal;font-variant:normal;font-weight:normal;font-stretch:normal;line-height:93.99999976%;font-family:'Varela Round';-inkscape-font-specification:'Varela Round';text-align:center;text-anchor:middle;fill:#333333;fill-opacity:1;stroke:#333333;stroke-width:12.00000095;stroke-linecap:round;stroke-linejoin:round;stroke-miterlimit:4;stroke-dasharray:none;stroke-opacity:1"
         d="m 171.75362,907.01581 q 4.63207,-4.75726 10.70384,-4.75726 6.07177,0 10.39086,4.31909 4.75726,4.75726 4.75726,12.26872 0,7.63666 -4.75726,12.33133 -4.38169,4.25649 -10.45346,4.25649 -6.00917,0 -10.64124,-4.75726 l 0,15.96187 q 0,1.25191 -0.81374,2.06565 -0.81374,0.81374 -2.06565,0.81374 -1.18932,0 -2.00306,-0.81374 -0.81374,-0.81374 -0.81374,-2.06565 l 0,-41.25047 q 0,-1.18931 0.81374,-2.00306 0.81374,-0.81374 2.00306,-0.81374 1.25191,0 2.06565,0.81374 0.81374,0.81375 0.81374,2.00306 l 0,1.62749 z m 0,18.40309 q 4.2565,4.69466 9.8901,4.69466 7.13589,0 9.51452,-6.38474 0.75115,-2.12825 0.75115,-4.88246 0,-5.38321 -2.8794,-8.45039 -2.7542,-2.8168 -7.38627,-2.8168 -5.6336,0 -9.8901,4.69466 l 0,13.14507 z" />
      <path
         id="path9828"
         style="font-style:normal;font-variant:normal;font-weight:normal;font-stretch:normal;line-height:93.99999976%;font-family:'Varela Round';-inkscape-font-specification:'Varela Round';text-align:center;text-anchor:middle;fill:#333333;fill-opacity:1;stroke:#333333;stroke-width:12.00000095;stroke-linecap:round;stroke-linejoin:round;stroke-miterlimit:4;stroke-dasharray:none;stroke-opacity:1"
         d="m 209.42734,920.84942 q 0.50077,4.2565 3.19237,6.76032 2.69161,2.50382 7.51147,2.50382 4.81986,0 8.07482,-1.62748 1.12672,-0.56336 1.94047,-0.56336 0.81374,0 1.56488,0.68855 0.75115,0.68855 0.75115,1.56489 0,1.62748 -1.3771,2.37863 -1.31451,0.68855 -2.37863,1.18931 -1.06413,0.50077 -2.31604,0.87634 -2.8168,0.81374 -6.50993,0.81374 -7.69925,0 -11.95575,-4.31909 -4.2565,-4.31909 -4.2565,-12.26873 0,-6.88551 3.56795,-11.45498 4.00611,-5.13283 11.39239,-5.13283 7.0107,0 11.07941,4.75726 3.81833,4.44428 3.81833,11.01681 0,1.18932 -0.81375,2.00306 -0.75114,0.81374 -2.06565,0.81374 l -21.21989,0 z m 9.20155,-13.77102 q -5.57101,0 -8.13742,4.94505 -0.93894,1.75268 -1.06413,4.1939 l 18.46569,0 q -0.25039,-4.44428 -3.25497,-7.0107 -2.50382,-2.12825 -6.00917,-2.12825 z" />
      <path
         id="path9830"
         style="font-style:normal;font-variant:normal;font-weight:normal;font-stretch:normal;line-height:93.99999976%;font-family:'Varela Round';-inkscape-font-specification:'Varela Round';text-align:center;text-anchor:middle;fill:#333333;fill-opacity:1;stroke:#333333;stroke-width:12.00000095;stroke-linecap:round;stroke-linejoin:round;stroke-miterlimit:4;stroke-dasharray:none;stroke-opacity:1"
         d="m 242.43475,904.51198 q 5.25803,-2.25343 10.89163,-2.25343 6.38474,0 9.89009,3.88092 3.12978,3.38016 3.12978,8.4504 l 0,17.71454 q 0,1.18931 -0.87634,2.00305 -0.81374,0.81375 -2.00305,0.81375 -1.18932,0 -2.00306,-0.81375 -0.81374,-0.81374 -0.81374,-2.00305 l 0,-1.62749 q -1.69008,1.75268 -4.56948,3.25497 -2.8168,1.50229 -7.19849,1.50229 -4.31909,0 -7.19848,-2.50382 -3.00459,-2.62901 -3.00459,-6.88551 0,-4.63207 3.50535,-7.26108 3.81833,-2.8794 10.89163,-2.8794 l 7.57406,0 0,-0.50076 q 0,-4.1939 -2.06566,-5.94658 -2.06565,-1.81527 -6.32215,-1.81527 -3.63054,0 -8.3252,1.50229 -0.50077,0.1252 -1.12672,0.1252 -0.62596,0 -1.31451,-0.62596 -0.68855,-0.68855 -0.68855,-2.06565 0,-1.3771 1.62748,-2.06566 z m 1.94047,20.90692 q 0,5.00764 6.63512,5.00764 2.94199,0 5.44582,-1.4397 2.56641,-1.4397 4.1939,-3.25497 l 0,-5.25802 -6.82292,0 q -4.44428,0 -6.9481,1.12672 -2.50382,1.12672 -2.50382,3.81833 z" />
      <path
         id="path9832"
         style="font-style:normal;font-variant:normal;font-weight:normal;font-stretch:normal;line-height:93.99999976%;font-family:'Varela Round';-inkscape-font-specification:'Varela Round';text-align:center;text-anchor:middle;fill:#333333;fill-opacity:1;stroke:#333333;stroke-width:12.00000095;stroke-linecap:round;stroke-linejoin:round;stroke-miterlimit:4;stroke-dasharray:none;stroke-opacity:1"
         d="m 299.8779,930.67692 q -4.63207,4.75726 -10.70384,4.75726 -6.00917,0 -10.39086,-4.25649 -4.75726,-4.69467 -4.75726,-12.33133 0,-7.51146 4.75726,-12.26872 4.31909,-4.31909 10.39086,-4.31909 6.07177,0 10.70384,4.75726 l 0,-15.33591 q 0,-1.25191 0.81374,-2.06565 0.81374,-0.81375 2.00306,-0.81375 1.25191,0 2.06565,0.81375 0.81374,0.81374 0.81374,2.06565 l 0,40.62451 q 0,1.18931 -0.81374,2.00305 -0.81374,0.81375 -2.06565,0.81375 -1.18932,0 -2.00306,-0.81375 -0.81374,-0.81374 -0.81374,-2.00305 l 0,-1.62749 z m 0,-18.40309 q -4.2565,-4.69466 -9.8901,-4.69466 -7.13589,0 -9.45192,6.38474 -0.81375,2.12825 -0.81375,4.88245 0,5.38322 2.94199,8.4504 2.69161,2.8168 7.32368,2.8168 5.6336,0 9.8901,-4.69466 l 0,-13.14507 z" />
      <path
         id="path9834"
         style="font-style:normal;font-variant:normal;font-weight:normal;font-stretch:normal;line-height:93.99999976%;font-family:'Varela Round';-inkscape-font-specification:'Varela Round';text-align:center;text-anchor:middle;fill:#333333;fill-opacity:1;stroke:#333333;stroke-width:12.00000095;stroke-linecap:round;stroke-linejoin:round;stroke-miterlimit:4;stroke-dasharray:none;stroke-opacity:1"
         d="m 329.53938,902.25855 q 7.26108,0 11.64277,4.56947 4.38169,4.63207 4.38169,12.01834 0,7.38628 -4.38169,12.01835 -4.38169,4.56947 -11.64277,4.56947 -7.32368,0 -11.64277,-4.56947 -4.38169,-4.56948 -4.38169,-12.01835 0,-7.44887 4.38169,-12.01834 4.31909,-4.56947 11.64277,-4.56947 z m -7.0107,25.41379 q 1.50229,1.3145 3.31756,1.94046 1.87787,0.62595 3.63055,0.62595 1.81527,0 3.63054,-0.62595 1.87786,-0.62596 3.38016,-1.94046 3.38016,-3.06719 3.38016,-8.88857 0,-5.6336 -3.38016,-8.76338 -2.8168,-2.56641 -6.94811,-2.56641 -6.76032,0 -9.38933,6.07176 -0.93893,2.19085 -0.93893,5.32062 0,3.06719 0.93893,5.25803 0.93893,2.19084 2.37863,3.56795 z" />
      <path
         id="path9836"
         style="font-style:normal;font-variant:normal;font-weight:normal;font-stretch:normal;line-height:93.99999976%;font-family:'Varela Round';-inkscape-font-specification:'Varela Round';text-align:center;text-anchor:middle;fill:#333333;fill-opacity:1;stroke:#333333;stroke-width:12.00000095;stroke-linecap:round;stroke-linejoin:round;stroke-miterlimit:4;stroke-dasharray:none;stroke-opacity:1"
         d="m 55.442788,985.88619 q 0.500764,-0.25038 1.377102,-0.25038 0.938933,0 1.564888,0.75114 0.688551,0.68856 0.688551,1.62749 0,1.69008 -1.377102,2.37863 -2.94199,1.62748 -6.322149,2.7542 -3.317564,1.12672 -8.01223,1.12672 -4.63207,0 -8.638185,-1.50229 -4.006115,-1.56489 -6.948105,-4.50688 -6.259554,-6.13436 -6.259554,-16.46263 0,-10.32826 6.259554,-16.46262 6.071768,-6.00918 15.648886,-6.00918 4.63207,0 7.949634,1.12672 3.380159,1.12672 5.132834,2.12825 1.815271,0.93893 2.190844,1.56489 0.375573,0.56336 0.375573,1.50229 0,0.87634 -0.688551,1.62749 -0.625955,0.68855 -1.564888,0.68855 -0.876338,0 -1.377102,-0.25038 -2.503822,-1.31451 -5.132835,-2.12825 -2.629012,-0.81374 -6.572532,-0.81374 -3.880923,0 -7.073296,1.3145 -3.129777,1.31451 -5.258026,3.63054 -4.193901,4.56948 -4.193901,12.08094 0,7.51147 4.193901,12.08094 4.569475,4.94505 12.581705,4.94505 3.693137,0 6.322149,-0.81374 2.629013,-0.81374 5.132835,-2.12825 z" />
      <path
         id="path9838"
         style="font-style:normal;font-variant:normal;font-weight:normal;font-stretch:normal;line-height:93.99999976%;font-family:'Varela Round';-inkscape-font-specification:'Varela Round';text-align:center;text-anchor:middle;fill:#333333;fill-opacity:1;stroke:#333333;stroke-width:12.00000095;stroke-linecap:round;stroke-linejoin:round;stroke-miterlimit:4;stroke-dasharray:none;stroke-opacity:1"
         d="m 79.707362,961.09836 q 7.261083,0 11.642771,4.56947 4.381688,4.63207 4.381688,12.01834 0,7.38628 -4.381688,12.01835 -4.381688,4.56947 -11.642771,4.56947 -7.323679,0 -11.642771,-4.56947 -4.381688,-4.56948 -4.381688,-12.01835 0,-7.44887 4.381688,-12.01834 4.319092,-4.56947 11.642771,-4.56947 z m -7.010701,25.41379 q 1.502293,1.3145 3.317564,1.94046 1.877866,0.62595 3.630541,0.62595 1.815271,0 3.630542,-0.62595 1.877866,-0.62596 3.380159,-1.94046 3.380159,-3.06719 3.380159,-8.88857 0,-5.6336 -3.380159,-8.76338 -2.816799,-2.56641 -6.948105,-2.56641 -6.760319,0 -9.389332,6.07176 -0.938933,2.19085 -0.938933,5.32062 0,3.06719 0.938933,5.25803 0.938934,2.19084 2.378631,3.56795 z" />
      <path
         id="path9840"
         style="font-style:normal;font-variant:normal;font-weight:normal;font-stretch:normal;line-height:93.99999976%;font-family:'Varela Round';-inkscape-font-specification:'Varela Round';text-align:center;text-anchor:middle;fill:#333333;fill-opacity:1;stroke:#333333;stroke-width:12.00000095;stroke-linecap:round;stroke-linejoin:round;stroke-miterlimit:4;stroke-dasharray:none;stroke-opacity:1"
         d="m 104.14603,950.51971 q 0,-1.25191 0.81375,-2.06565 0.81374,-0.81375 2.00305,-0.81375 1.25191,0 2.06566,0.81375 0.81374,0.81374 0.81374,2.06565 l 0,40.62451 q 0,1.18931 -0.81374,2.00305 -0.81375,0.81375 -2.06566,0.81375 -1.18931,0 -2.00305,-0.81375 -0.81375,-0.81374 -0.81375,-2.00305 l 0,-40.62451 z" />
      <path
         id="path9842"
         style="font-style:normal;font-variant:normal;font-weight:normal;font-stretch:normal;line-height:93.99999976%;font-family:'Varela Round';-inkscape-font-specification:'Varela Round';text-align:center;text-anchor:middle;fill:#333333;fill-opacity:1;stroke:#333333;stroke-width:12.00000095;stroke-linecap:round;stroke-linejoin:round;stroke-miterlimit:4;stroke-dasharray:none;stroke-opacity:1"
         d="m 121.46153,963.35179 q 5.25803,-2.25343 10.89162,-2.25343 6.38475,0 9.8901,3.88092 3.12978,3.38016 3.12978,8.4504 l 0,17.71454 q 0,1.18931 -0.87634,2.00305 -0.81374,0.81375 -2.00306,0.81375 -1.18931,0 -2.00306,-0.81375 -0.81374,-0.81374 -0.81374,-2.00305 l 0,-1.62749 q -1.69008,1.75268 -4.56947,3.25497 -2.8168,1.50229 -7.19849,1.50229 -4.31909,0 -7.19849,-2.50382 -3.00458,-2.62901 -3.00458,-6.88551 0,-4.63207 3.50535,-7.26108 3.81833,-2.8794 10.89162,-2.8794 l 7.57406,0 0,-0.50076 q 0,-4.1939 -2.06565,-5.94658 -2.06565,-1.81527 -6.32215,-1.81527 -3.63054,0 -8.32521,1.5023 -0.50076,0.12519 -1.12672,0.12519 -0.62595,0 -1.3145,-0.62596 -0.68855,-0.68855 -0.68855,-2.06565 0,-1.3771 1.62748,-2.06566 z m 1.94046,20.90692 q 0,5.00764 6.63513,5.00764 2.94199,0 5.44581,-1.4397 2.56642,-1.4397 4.1939,-3.25497 l 0,-5.25802 -6.82291,0 q -4.44429,0 -6.94811,1.12672 -2.50382,1.12672 -2.50382,3.81833 z" />
      <path
         id="path9844"
         style="font-style:normal;font-variant:normal;font-weight:normal;font-stretch:normal;line-height:93.99999976%;font-family:'Varela Round';-inkscape-font-specification:'Varela Round';text-align:center;text-anchor:middle;fill:#333333;fill-opacity:1;stroke:#333333;stroke-width:12.00000095;stroke-linecap:round;stroke-linejoin:round;stroke-miterlimit:4;stroke-dasharray:none;stroke-opacity:1"
         d="m 160.68937,965.85562 q 4.63207,-4.75726 10.70384,-4.75726 6.07177,0 10.39086,4.31909 4.75726,4.75726 4.75726,12.26872 0,7.63666 -4.75726,12.33133 -4.38169,4.25649 -10.45346,4.25649 -6.00917,0 -10.64124,-4.75726 l 0,1.62749 q 0,1.18931 -0.81374,2.00305 -0.81374,0.81375 -2.06565,0.81375 -1.18932,0 -2.00306,-0.81375 -0.81374,-0.81374 -0.81374,-2.00305 l 0,-40.62451 q 0,-1.25191 0.81374,-2.06565 0.81374,-0.81375 2.00306,-0.81375 1.25191,0 2.06565,0.81375 0.81374,0.81374 0.81374,2.06565 l 0,15.33591 z m 0,18.40309 q 4.2565,4.69466 9.8901,4.69466 7.13589,0 9.51452,-6.38474 0.75115,-2.12825 0.75115,-4.88246 0,-5.38321 -2.8794,-8.45039 -2.7542,-2.8168 -7.38627,-2.8168 -5.6336,0 -9.8901,4.69466 l 0,13.14507 z" />
      <path
         id="path9846"
         style="font-style:normal;font-variant:normal;font-weight:normal;font-stretch:normal;line-height:93.99999976%;font-family:'Varela Round';-inkscape-font-specification:'Varela Round';text-align:center;text-anchor:middle;fill:#333333;fill-opacity:1;stroke:#333333;stroke-width:12.00000095;stroke-linecap:round;stroke-linejoin:round;stroke-miterlimit:4;stroke-dasharray:none;stroke-opacity:1"
         d="m 208.56616,961.09836 q 7.26108,0 11.64277,4.56947 4.38169,4.63207 4.38169,12.01834 0,7.38628 -4.38169,12.01835 -4.38169,4.56947 -11.64277,4.56947 -7.32368,0 -11.64277,-4.56947 -4.38169,-4.56948 -4.38169,-12.01835 0,-7.44887 4.38169,-12.01834 4.31909,-4.56947 11.64277,-4.56947 z m -7.0107,25.41379 q 1.50229,1.3145 3.31756,1.94046 1.87787,0.62595 3.63054,0.62595 1.81527,0 3.63054,-0.62595 1.87787,-0.62596 3.38016,-1.94046 3.38016,-3.06719 3.38016,-8.88857 0,-5.6336 -3.38016,-8.76338 -2.8168,-2.56641 -6.9481,-2.56641 -6.76032,0 -9.38933,6.07176 -0.93894,2.19085 -0.93894,5.32062 0,3.06719 0.93894,5.25803 0.93893,2.19084 2.37863,3.56795 z" />
      <path
         id="path9848"
         style="font-style:normal;font-variant:normal;font-weight:normal;font-stretch:normal;line-height:93.99999976%;font-family:'Varela Round';-inkscape-font-specification:'Varela Round';text-align:center;text-anchor:middle;fill:#333333;fill-opacity:1;stroke:#333333;stroke-width:12.00000095;stroke-linecap:round;stroke-linejoin:round;stroke-miterlimit:4;stroke-dasharray:none;stroke-opacity:1"
         d="m 238.20027,966.98234 q 4.38168,-5.88398 9.8275,-5.88398 l 0.31297,0 q 1.18932,0 1.94047,0.81374 0.81374,0.81374 0.81374,2.06565 0,1.18932 -0.81374,1.94046 -0.81375,0.68855 -2.06566,0.68855 l -0.31297,0 q -3.12978,0 -5.6336,1.56489 -2.44123,1.50229 -4.06871,3.94352 l 0,19.02905 q 0,1.18931 -0.87634,2.00305 -0.81374,0.81375 -2.00306,0.81375 -1.18931,0 -2.00306,-0.81375 -0.81374,-0.81374 -0.81374,-2.00305 l 0,-26.85349 q 0,-1.18932 0.81374,-2.00306 0.81375,-0.87634 2.00306,-0.87634 1.18932,0 2.00306,0.87634 0.87634,0.81374 0.87634,2.00306 l 0,2.69161 z" />
      <path
         id="path9850"
         style="font-style:normal;font-variant:normal;font-weight:normal;font-stretch:normal;line-height:93.99999976%;font-family:'Varela Round';-inkscape-font-specification:'Varela Round';text-align:center;text-anchor:middle;fill:#333333;fill-opacity:1;stroke:#333333;stroke-width:12.00000095;stroke-linecap:round;stroke-linejoin:round;stroke-miterlimit:4;stroke-dasharray:none;stroke-opacity:1"
         d="m 257.90025,963.35179 q 5.25803,-2.25343 10.89162,-2.25343 6.38475,0 9.8901,3.88092 3.12978,3.38016 3.12978,8.4504 l 0,17.71454 q 0,1.18931 -0.87634,2.00305 -0.81374,0.81375 -2.00306,0.81375 -1.18931,0 -2.00305,-0.81375 -0.81375,-0.81374 -0.81375,-2.00305 l 0,-1.62749 q -1.69008,1.75268 -4.56947,3.25497 -2.8168,1.50229 -7.19849,1.50229 -4.31909,0 -7.19849,-2.50382 -3.00458,-2.62901 -3.00458,-6.88551 0,-4.63207 3.50535,-7.26108 3.81833,-2.8794 10.89162,-2.8794 l 7.57406,0 0,-0.50076 q 0,-4.1939 -2.06565,-5.94658 -2.06565,-1.81527 -6.32215,-1.81527 -3.63054,0 -8.32521,1.5023 -0.50076,0.12519 -1.12672,0.12519 -0.62595,0 -1.3145,-0.62596 -0.68855,-0.68855 -0.68855,-2.06565 0,-1.3771 1.62748,-2.06566 z m 1.94046,20.90692 q 0,5.00764 6.63513,5.00764 2.94199,0 5.44581,-1.4397 2.56642,-1.4397 4.1939,-3.25497 l 0,-5.25802 -6.82291,0 q -4.44428,0 -6.94811,1.12672 -2.50382,1.12672 -2.50382,3.81833 z" />
      <path
         id="path9852"
         style="font-style:normal;font-variant:normal;font-weight:normal;font-stretch:normal;line-height:93.99999976%;font-family:'Varela Round';-inkscape-font-specification:'Varela Round';text-align:center;text-anchor:middle;fill:#333333;fill-opacity:1;stroke:#333333;stroke-width:12.00000095;stroke-linecap:round;stroke-linejoin:round;stroke-miterlimit:4;stroke-dasharray:none;stroke-opacity:1"
         d="m 302.76903,989.26635 q 1.69008,0 2.37864,-0.25038 0.75114,-0.31298 1.56488,-0.31298 0.87634,0 1.56489,0.62596 0.68855,0.62595 0.68855,1.87786 0,1.25191 -1.25191,1.81527 -2.69161,1.25191 -4.63207,1.25191 -1.87786,0 -3.44275,-0.18778 -1.56489,-0.18779 -3.00459,-1.06413 -3.44275,-2.00306 -3.44275,-7.0107 l 0,-19.40462 -4.44429,0 q -1.18931,0 -1.18931,-1.18931 0,-0.56336 0.56336,-1.06413 l 8.51299,-8.3252 q 0.56336,-0.56336 1.06413,-0.56336 0.50076,0 0.81374,0.37557 0.37557,0.37557 0.37557,0.87634 l 0,5.00764 7.0733,0 q 1.06412,0 1.75267,0.68855 0.68855,0.68855 0.68855,1.75268 0,1.06412 -0.68855,1.75267 -0.68855,0.68855 -1.75267,0.68855 l -7.0733,0 0,18.90386 q 0,2.37863 1.4397,3.25497 0.81374,0.50076 2.44122,0.50076 z" />
      <path
         id="path9854"
         style="font-style:normal;font-variant:normal;font-weight:normal;font-stretch:normal;line-height:93.99999976%;font-family:'Varela Round';-inkscape-font-specification:'Varela Round';text-align:center;text-anchor:middle;fill:#333333;fill-opacity:1;stroke:#333333;stroke-width:12.00000095;stroke-linecap:round;stroke-linejoin:round;stroke-miterlimit:4;stroke-dasharray:none;stroke-opacity:1"
         d="m 315.52237,964.29073 q 0,-1.25191 0.81374,-2.06565 0.81374,-0.81375 2.00306,-0.81375 1.25191,0 2.06565,0.81375 0.81374,0.81374 0.81374,2.06565 l 0,26.85349 q 0,1.18931 -0.81374,2.00305 -0.81374,0.81375 -2.06565,0.81375 -1.18932,0 -2.00306,-0.81375 -0.81374,-0.81374 -0.81374,-2.00305 l 0,-26.85349 z m 6.25955,-12.26873 q 0,1.31451 -0.93893,2.25344 -0.93893,0.93893 -2.25344,0.93893 l -0.37557,0 q -1.31451,0 -2.25344,-0.93893 -0.93894,-0.93893 -0.93894,-2.25344 l 0,-0.25038 q 0,-1.31451 0.93894,-2.25344 0.93893,-0.93893 2.25344,-0.93893 l 0.37557,0 q 1.31451,0 2.25344,0.93893 0.93893,0.93893 0.93893,2.25344 l 0,0.25038 z" />
      <path
         id="path9856"
         style="font-style:normal;font-variant:normal;font-weight:normal;font-stretch:normal;line-height:93.99999976%;font-family:'Varela Round';-inkscape-font-specification:'Varela Round';text-align:center;text-anchor:middle;fill:#333333;fill-opacity:1;stroke:#333333;stroke-width:12.00000095;stroke-linecap:round;stroke-linejoin:round;stroke-miterlimit:4;stroke-dasharray:none;stroke-opacity:1"
         d="m 352.62981,963.03882 q 0.75115,-1.62749 2.75421,-1.62749 1.00153,0 1.81527,0.87634 0.81374,0.81374 0.81374,1.56489 0,1.00153 -0.31298,1.75267 l -10.89162,26.03975 q -0.43817,0.93893 -1.3771,1.62748 -0.87634,0.68856 -2.06566,0.68856 l -0.62595,0 q -1.18932,0 -2.12825,-0.68856 -0.87634,-0.68855 -1.31451,-1.62748 l -10.89162,-26.03975 q -0.31298,-0.75114 -0.31298,-1.62748 0,-0.87634 0.81374,-1.69008 0.81375,-0.87634 1.81527,-0.87634 2.00306,0 2.75421,1.62749 l 9.57712,24.28707 9.57711,-24.28707 z" />
      <path
         id="path9858"
         style="font-style:normal;font-variant:normal;font-weight:normal;font-stretch:normal;line-height:93.99999976%;font-family:'Varela Round';-inkscape-font-specification:'Varela Round';text-align:center;text-anchor:middle;fill:#333333;fill-opacity:1;stroke:#333333;stroke-width:12.00000095;stroke-linecap:round;stroke-linejoin:round;stroke-miterlimit:4;stroke-dasharray:none;stroke-opacity:1"
         d="m 378.1365,961.09836 q 7.26108,0 11.64277,4.56947 4.38169,4.63207 4.38169,12.01834 0,7.38628 -4.38169,12.01835 -4.38169,4.56947 -11.64277,4.56947 -7.32368,0 -11.64277,-4.56947 -4.38169,-4.56948 -4.38169,-12.01835 0,-7.44887 4.38169,-12.01834 4.31909,-4.56947 11.64277,-4.56947 z m -7.0107,25.41379 q 1.50229,1.3145 3.31756,1.94046 1.87787,0.62595 3.63054,0.62595 1.81528,0 3.63055,-0.62595 1.87786,-0.62596 3.38016,-1.94046 3.38015,-3.06719 3.38015,-8.88857 0,-5.6336 -3.38015,-8.76338 -2.8168,-2.56641 -6.94811,-2.56641 -6.76032,0 -9.38933,6.07176 -0.93893,2.19085 -0.93893,5.32062 0,3.06719 0.93893,5.25803 0.93893,2.19084 2.37863,3.56795 z" />
    </g>
    <g
       id="text3888-3-5-0-5-7-1-2-5-7-4"
       style="font-style:normal;font-variant:normal;font-weight:normal;font-stretch:normal;font-size:62.59554291px;line-height:93.99999976%;font-family:'Varela Round';-inkscape-font-specification:'Varela Round';text-align:center;letter-spacing:0px;word-spacing:0px;text-anchor:middle;fill:#ffffff;fill-opacity:1;stroke:none">
      <path
         id="path9783"
         style="font-style:normal;font-variant:normal;font-weight:normal;font-stretch:normal;line-height:93.99999976%;font-family:'Varela Round';-inkscape-font-specification:'Varela Round';text-align:center;text-anchor:middle;fill:#ffffff;fill-opacity:1"
         d="m 116.9346,890.80356 q 1.69008,0 2.87939,1.25191 1.18932,1.18932 1.18932,2.8794 l 0,37.36954 q 0,1.18931 -0.81375,2.00305 -0.81374,0.81375 -2.00305,0.81375 -1.18932,0 -2.06566,-0.81375 -0.81374,-0.81374 -0.81374,-2.00305 l 0,-35.55427 -14.45957,35.74205 q -0.50076,1.18932 -1.564888,1.94046 -1.064124,0.68856 -2.441226,0.68856 -1.377102,0 -2.441226,-0.68856 -1.064124,-0.75114 -1.564889,-1.94046 l -14.45957,-35.74205 0,35.55427 q 0,1.18931 -0.876338,2.00305 -0.813742,0.81375 -2.003057,0.81375 -1.189315,0 -2.003057,-0.81375 -0.813742,-0.81374 -0.813742,-2.00305 l 0,-37.36954 q 0,-1.69008 1.189315,-2.8794 1.189315,-1.25191 2.879395,-1.25191 l 2.065653,0 q 1.251911,0 2.253439,0.75115 1.064125,0.75114 1.564889,1.87786 l 14.209188,35.42908 14.209184,-35.42908 q 0.50077,-1.12672 1.5023,-1.87786 1.06412,-0.75115 2.31603,-0.75115 l 2.06566,0 z" />
      <path
         id="path9785"
         style="font-style:normal;font-variant:normal;font-weight:normal;font-stretch:normal;line-height:93.99999976%;font-family:'Varela Round';-inkscape-font-specification:'Varela Round';text-align:center;text-anchor:middle;fill:#ffffff;fill-opacity:1"
         d="m 132.52578,904.51198 q 5.25802,-2.25343 10.89162,-2.25343 6.38475,0 9.8901,3.88092 3.12977,3.38016 3.12977,8.4504 l 0,17.71454 q 0,1.18931 -0.87633,2.00305 -0.81375,0.81375 -2.00306,0.81375 -1.18932,0 -2.00306,-0.81375 -0.81374,-0.81374 -0.81374,-2.00305 l 0,-1.62749 q -1.69008,1.75268 -4.56948,3.25497 -2.81679,1.50229 -7.19848,1.50229 -4.3191,0 -7.19849,-2.50382 -3.00459,-2.62901 -3.00459,-6.88551 0,-4.63207 3.50535,-7.26108 3.81833,-2.8794 10.89163,-2.8794 l 7.57406,0 0,-0.50076 q 0,-4.1939 -2.06565,-5.94658 -2.06566,-1.81527 -6.32215,-1.81527 -3.63054,0 -8.32521,1.50229 -0.50077,0.1252 -1.12672,0.1252 -0.62596,0 -1.31451,-0.62596 -0.68855,-0.68855 -0.68855,-2.06565 0,-1.3771 1.62749,-2.06566 z m 1.94046,20.90692 q 0,5.00764 6.63513,5.00764 2.94199,0 5.44581,-1.4397 2.56642,-1.4397 4.1939,-3.25497 l 0,-5.25802 -6.82291,0 q -4.44429,0 -6.94811,1.12672 -2.50382,1.12672 -2.50382,3.81833 z" />
      <path
         id="path9787"
         style="font-style:normal;font-variant:normal;font-weight:normal;font-stretch:normal;line-height:93.99999976%;font-family:'Varela Round';-inkscape-font-specification:'Varela Round';text-align:center;text-anchor:middle;fill:#ffffff;fill-opacity:1"
         d="m 171.75362,907.01581 q 4.63207,-4.75726 10.70384,-4.75726 6.07177,0 10.39086,4.31909 4.75726,4.75726 4.75726,12.26872 0,7.63666 -4.75726,12.33133 -4.38169,4.25649 -10.45346,4.25649 -6.00917,0 -10.64124,-4.75726 l 0,15.96187 q 0,1.25191 -0.81374,2.06565 -0.81374,0.81374 -2.06565,0.81374 -1.18932,0 -2.00306,-0.81374 -0.81374,-0.81374 -0.81374,-2.06565 l 0,-41.25047 q 0,-1.18931 0.81374,-2.00306 0.81374,-0.81374 2.00306,-0.81374 1.25191,0 2.06565,0.81374 0.81374,0.81375 0.81374,2.00306 l 0,1.62749 z m 0,18.40309 q 4.2565,4.69466 9.8901,4.69466 7.13589,0 9.51452,-6.38474 0.75115,-2.12825 0.75115,-4.88246 0,-5.38321 -2.8794,-8.45039 -2.7542,-2.8168 -7.38627,-2.8168 -5.6336,0 -9.8901,4.69466 l 0,13.14507 z" />
      <path
         id="path9789"
         style="font-style:normal;font-variant:normal;font-weight:normal;font-stretch:normal;line-height:93.99999976%;font-family:'Varela Round';-inkscape-font-specification:'Varela Round';text-align:center;text-anchor:middle;fill:#ffffff;fill-opacity:1"
         d="m 209.42734,920.84942 q 0.50077,4.2565 3.19237,6.76032 2.69161,2.50382 7.51147,2.50382 4.81986,0 8.07482,-1.62748 1.12672,-0.56336 1.94047,-0.56336 0.81374,0 1.56488,0.68855 0.75115,0.68855 0.75115,1.56489 0,1.62748 -1.3771,2.37863 -1.31451,0.68855 -2.37863,1.18931 -1.06413,0.50077 -2.31604,0.87634 -2.8168,0.81374 -6.50993,0.81374 -7.69925,0 -11.95575,-4.31909 -4.2565,-4.31909 -4.2565,-12.26873 0,-6.88551 3.56795,-11.45498 4.00611,-5.13283 11.39239,-5.13283 7.0107,0 11.07941,4.75726 3.81833,4.44428 3.81833,11.01681 0,1.18932 -0.81375,2.00306 -0.75114,0.81374 -2.06565,0.81374 l -21.21989,0 z m 9.20155,-13.77102 q -5.57101,0 -8.13742,4.94505 -0.93894,1.75268 -1.06413,4.1939 l 18.46569,0 q -0.25039,-4.44428 -3.25497,-7.0107 -2.50382,-2.12825 -6.00917,-2.12825 z" />
      <path
         id="path9791"
         style="font-style:normal;font-variant:normal;font-weight:normal;font-stretch:normal;line-height:93.99999976%;font-family:'Varela Round';-inkscape-font-specification:'Varela Round';text-align:center;text-anchor:middle;fill:#ffffff;fill-opacity:1"
         d="m 242.43475,904.51198 q 5.25803,-2.25343 10.89163,-2.25343 6.38474,0 9.89009,3.88092 3.12978,3.38016 3.12978,8.4504 l 0,17.71454 q 0,1.18931 -0.87634,2.00305 -0.81374,0.81375 -2.00305,0.81375 -1.18932,0 -2.00306,-0.81375 -0.81374,-0.81374 -0.81374,-2.00305 l 0,-1.62749 q -1.69008,1.75268 -4.56948,3.25497 -2.8168,1.50229 -7.19849,1.50229 -4.31909,0 -7.19848,-2.50382 -3.00459,-2.62901 -3.00459,-6.88551 0,-4.63207 3.50535,-7.26108 3.81833,-2.8794 10.89163,-2.8794 l 7.57406,0 0,-0.50076 q 0,-4.1939 -2.06566,-5.94658 -2.06565,-1.81527 -6.32215,-1.81527 -3.63054,0 -8.3252,1.50229 -0.50077,0.1252 -1.12672,0.1252 -0.62596,0 -1.31451,-0.62596 -0.68855,-0.68855 -0.68855,-2.06565 0,-1.3771 1.62748,-2.06566 z m 1.94047,20.90692 q 0,5.00764 6.63512,5.00764 2.94199,0 5.44582,-1.4397 2.56641,-1.4397 4.1939,-3.25497 l 0,-5.25802 -6.82292,0 q -4.44428,0 -6.9481,1.12672 -2.50382,1.12672 -2.50382,3.81833 z" />
      <path
         id="path9793"
         style="font-style:normal;font-variant:normal;font-weight:normal;font-stretch:normal;line-height:93.99999976%;font-family:'Varela Round';-inkscape-font-specification:'Varela Round';text-align:center;text-anchor:middle;fill:#ffffff;fill-opacity:1"
         d="m 299.8779,930.67692 q -4.63207,4.75726 -10.70384,4.75726 -6.00917,0 -10.39086,-4.25649 -4.75726,-4.69467 -4.75726,-12.33133 0,-7.51146 4.75726,-12.26872 4.31909,-4.31909 10.39086,-4.31909 6.07177,0 10.70384,4.75726 l 0,-15.33591 q 0,-1.25191 0.81374,-2.06565 0.81374,-0.81375 2.00306,-0.81375 1.25191,0 2.06565,0.81375 0.81374,0.81374 0.81374,2.06565 l 0,40.62451 q 0,1.18931 -0.81374,2.00305 -0.81374,0.81375 -2.06565,0.81375 -1.18932,0 -2.00306,-0.81375 -0.81374,-0.81374 -0.81374,-2.00305 l 0,-1.62749 z m 0,-18.40309 q -4.2565,-4.69466 -9.8901,-4.69466 -7.13589,0 -9.45192,6.38474 -0.81375,2.12825 -0.81375,4.88245 0,5.38322 2.94199,8.4504 2.69161,2.8168 7.32368,2.8168 5.6336,0 9.8901,-4.69466 l 0,-13.14507 z" />
      <path
         id="path9795"
         style="font-style:normal;font-variant:normal;font-weight:normal;font-stretch:normal;line-height:93.99999976%;font-family:'Varela Round';-inkscape-font-specification:'Varela Round';text-align:center;text-anchor:middle;fill:#ffffff;fill-opacity:1"
         d="m 329.53938,902.25855 q 7.26108,0 11.64277,4.56947 4.38169,4.63207 4.38169,12.01834 0,7.38628 -4.38169,12.01835 -4.38169,4.56947 -11.64277,4.56947 -7.32368,0 -11.64277,-4.56947 -4.38169,-4.56948 -4.38169,-12.01835 0,-7.44887 4.38169,-12.01834 4.31909,-4.56947 11.64277,-4.56947 z m -7.0107,25.41379 q 1.50229,1.3145 3.31756,1.94046 1.87787,0.62595 3.63055,0.62595 1.81527,0 3.63054,-0.62595 1.87786,-0.62596 3.38016,-1.94046 3.38016,-3.06719 3.38016,-8.88857 0,-5.6336 -3.38016,-8.76338 -2.8168,-2.56641 -6.94811,-2.56641 -6.76032,0 -9.38933,6.07176 -0.93893,2.19085 -0.93893,5.32062 0,3.06719 0.93893,5.25803 0.93893,2.19084 2.37863,3.56795 z" />
      <path
         id="path9797"
         style="font-style:normal;font-variant:normal;font-weight:normal;font-stretch:normal;line-height:93.99999976%;font-family:'Varela Round';-inkscape-font-specification:'Varela Round';text-align:center;text-anchor:middle;fill:#ffffff;fill-opacity:1"
         d="m 55.442788,985.88619 q 0.500764,-0.25038 1.377102,-0.25038 0.938933,0 1.564888,0.75114 0.688551,0.68856 0.688551,1.62749 0,1.69008 -1.377102,2.37863 -2.94199,1.62748 -6.322149,2.7542 -3.317564,1.12672 -8.01223,1.12672 -4.63207,0 -8.638185,-1.50229 -4.006115,-1.56489 -6.948105,-4.50688 -6.259554,-6.13436 -6.259554,-16.46263 0,-10.32826 6.259554,-16.46262 6.071768,-6.00918 15.648886,-6.00918 4.63207,0 7.949634,1.12672 3.380159,1.12672 5.132834,2.12825 1.815271,0.93893 2.190844,1.56489 0.375573,0.56336 0.375573,1.50229 0,0.87634 -0.688551,1.62749 -0.625955,0.68855 -1.564888,0.68855 -0.876338,0 -1.377102,-0.25038 -2.503822,-1.31451 -5.132835,-2.12825 -2.629012,-0.81374 -6.572532,-0.81374 -3.880923,0 -7.073296,1.3145 -3.129777,1.31451 -5.258026,3.63054 -4.193901,4.56948 -4.193901,12.08094 0,7.51147 4.193901,12.08094 4.569475,4.94505 12.581705,4.94505 3.693137,0 6.322149,-0.81374 2.629013,-0.81374 5.132835,-2.12825 z" />
      <path
         id="path9799"
         style="font-style:normal;font-variant:normal;font-weight:normal;font-stretch:normal;line-height:93.99999976%;font-family:'Varela Round';-inkscape-font-specification:'Varela Round';text-align:center;text-anchor:middle;fill:#ffffff;fill-opacity:1"
         d="m 79.707362,961.09836 q 7.261083,0 11.642771,4.56947 4.381688,4.63207 4.381688,12.01834 0,7.38628 -4.381688,12.01835 -4.381688,4.56947 -11.642771,4.56947 -7.323679,0 -11.642771,-4.56947 -4.381688,-4.56948 -4.381688,-12.01835 0,-7.44887 4.381688,-12.01834 4.319092,-4.56947 11.642771,-4.56947 z m -7.010701,25.41379 q 1.502293,1.3145 3.317564,1.94046 1.877866,0.62595 3.630541,0.62595 1.815271,0 3.630542,-0.62595 1.877866,-0.62596 3.380159,-1.94046 3.380159,-3.06719 3.380159,-8.88857 0,-5.6336 -3.380159,-8.76338 -2.816799,-2.56641 -6.948105,-2.56641 -6.760319,0 -9.389332,6.07176 -0.938933,2.19085 -0.938933,5.32062 0,3.06719 0.938933,5.25803 0.938934,2.19084 2.378631,3.56795 z" />
      <path
         id="path9801"
         style="font-style:normal;font-variant:normal;font-weight:normal;font-stretch:normal;line-height:93.99999976%;font-family:'Varela Round';-inkscape-font-specification:'Varela Round';text-align:center;text-anchor:middle;fill:#ffffff;fill-opacity:1"
         d="m 104.14603,950.51971 q 0,-1.25191 0.81375,-2.06565 0.81374,-0.81375 2.00305,-0.81375 1.25191,0 2.06566,0.81375 0.81374,0.81374 0.81374,2.06565 l 0,40.62451 q 0,1.18931 -0.81374,2.00305 -0.81375,0.81375 -2.06566,0.81375 -1.18931,0 -2.00305,-0.81375 -0.81375,-0.81374 -0.81375,-2.00305 l 0,-40.62451 z" />
      <path
         id="path9803"
         style="font-style:normal;font-variant:normal;font-weight:normal;font-stretch:normal;line-height:93.99999976%;font-family:'Varela Round';-inkscape-font-specification:'Varela Round';text-align:center;text-anchor:middle;fill:#ffffff;fill-opacity:1"
         d="m 121.46153,963.35179 q 5.25803,-2.25343 10.89162,-2.25343 6.38475,0 9.8901,3.88092 3.12978,3.38016 3.12978,8.4504 l 0,17.71454 q 0,1.18931 -0.87634,2.00305 -0.81374,0.81375 -2.00306,0.81375 -1.18931,0 -2.00306,-0.81375 -0.81374,-0.81374 -0.81374,-2.00305 l 0,-1.62749 q -1.69008,1.75268 -4.56947,3.25497 -2.8168,1.50229 -7.19849,1.50229 -4.31909,0 -7.19849,-2.50382 -3.00458,-2.62901 -3.00458,-6.88551 0,-4.63207 3.50535,-7.26108 3.81833,-2.8794 10.89162,-2.8794 l 7.57406,0 0,-0.50076 q 0,-4.1939 -2.06565,-5.94658 -2.06565,-1.81527 -6.32215,-1.81527 -3.63054,0 -8.32521,1.5023 -0.50076,0.12519 -1.12672,0.12519 -0.62595,0 -1.3145,-0.62596 -0.68855,-0.68855 -0.68855,-2.06565 0,-1.3771 1.62748,-2.06566 z m 1.94046,20.90692 q 0,5.00764 6.63513,5.00764 2.94199,0 5.44581,-1.4397 2.56642,-1.4397 4.1939,-3.25497 l 0,-5.25802 -6.82291,0 q -4.44429,0 -6.94811,1.12672 -2.50382,1.12672 -2.50382,3.81833 z" />
      <path
         id="path9805"
         style="font-style:normal;font-variant:normal;font-weight:normal;font-stretch:normal;line-height:93.99999976%;font-family:'Varela Round';-inkscape-font-specification:'Varela Round';text-align:center;text-anchor:middle;fill:#ffffff;fill-opacity:1"
         d="m 160.68937,965.85562 q 4.63207,-4.75726 10.70384,-4.75726 6.07177,0 10.39086,4.31909 4.75726,4.75726 4.75726,12.26872 0,7.63666 -4.75726,12.33133 -4.38169,4.25649 -10.45346,4.25649 -6.00917,0 -10.64124,-4.75726 l 0,1.62749 q 0,1.18931 -0.81374,2.00305 -0.81374,0.81375 -2.06565,0.81375 -1.18932,0 -2.00306,-0.81375 -0.81374,-0.81374 -0.81374,-2.00305 l 0,-40.62451 q 0,-1.25191 0.81374,-2.06565 0.81374,-0.81375 2.00306,-0.81375 1.25191,0 2.06565,0.81375 0.81374,0.81374 0.81374,2.06565 l 0,15.33591 z m 0,18.40309 q 4.2565,4.69466 9.8901,4.69466 7.13589,0 9.51452,-6.38474 0.75115,-2.12825 0.75115,-4.88246 0,-5.38321 -2.8794,-8.45039 -2.7542,-2.8168 -7.38627,-2.8168 -5.6336,0 -9.8901,4.69466 l 0,13.14507 z" />
      <path
         id="path9807"
         style="font-style:normal;font-variant:normal;font-weight:normal;font-stretch:normal;line-height:93.99999976%;font-family:'Varela Round';-inkscape-font-specification:'Varela Round';text-align:center;text-anchor:middle;fill:#ffffff;fill-opacity:1"
         d="m 208.56616,961.09836 q 7.26108,0 11.64277,4.56947 4.38169,4.63207 4.38169,12.01834 0,7.38628 -4.38169,12.01835 -4.38169,4.56947 -11.64277,4.56947 -7.32368,0 -11.64277,-4.56947 -4.38169,-4.56948 -4.38169,-12.01835 0,-7.44887 4.38169,-12.01834 4.31909,-4.56947 11.64277,-4.56947 z m -7.0107,25.41379 q 1.50229,1.3145 3.31756,1.94046 1.87787,0.62595 3.63054,0.62595 1.81527,0 3.63054,-0.62595 1.87787,-0.62596 3.38016,-1.94046 3.38016,-3.06719 3.38016,-8.88857 0,-5.6336 -3.38016,-8.76338 -2.8168,-2.56641 -6.9481,-2.56641 -6.76032,0 -9.38933,6.07176 -0.93894,2.19085 -0.93894,5.32062 0,3.06719 0.93894,5.25803 0.93893,2.19084 2.37863,3.56795 z" />
      <path
         id="path9809"
         style="font-style:normal;font-variant:normal;font-weight:normal;font-stretch:normal;line-height:93.99999976%;font-family:'Varela Round';-inkscape-font-specification:'Varela Round';text-align:center;text-anchor:middle;fill:#ffffff;fill-opacity:1"
         d="m 238.20027,966.98234 q 4.38168,-5.88398 9.8275,-5.88398 l 0.31297,0 q 1.18932,0 1.94047,0.81374 0.81374,0.81374 0.81374,2.06565 0,1.18932 -0.81374,1.94046 -0.81375,0.68855 -2.06566,0.68855 l -0.31297,0 q -3.12978,0 -5.6336,1.56489 -2.44123,1.50229 -4.06871,3.94352 l 0,19.02905 q 0,1.18931 -0.87634,2.00305 -0.81374,0.81375 -2.00306,0.81375 -1.18931,0 -2.00306,-0.81375 -0.81374,-0.81374 -0.81374,-2.00305 l 0,-26.85349 q 0,-1.18932 0.81374,-2.00306 0.81375,-0.87634 2.00306,-0.87634 1.18932,0 2.00306,0.87634 0.87634,0.81374 0.87634,2.00306 l 0,2.69161 z" />
      <path
         id="path9811"
         style="font-style:normal;font-variant:normal;font-weight:normal;font-stretch:normal;line-height:93.99999976%;font-family:'Varela Round';-inkscape-font-specification:'Varela Round';text-align:center;text-anchor:middle;fill:#ffffff;fill-opacity:1"
         d="m 257.90025,963.35179 q 5.25803,-2.25343 10.89162,-2.25343 6.38475,0 9.8901,3.88092 3.12978,3.38016 3.12978,8.4504 l 0,17.71454 q 0,1.18931 -0.87634,2.00305 -0.81374,0.81375 -2.00306,0.81375 -1.18931,0 -2.00305,-0.81375 -0.81375,-0.81374 -0.81375,-2.00305 l 0,-1.62749 q -1.69008,1.75268 -4.56947,3.25497 -2.8168,1.50229 -7.19849,1.50229 -4.31909,0 -7.19849,-2.50382 -3.00458,-2.62901 -3.00458,-6.88551 0,-4.63207 3.50535,-7.26108 3.81833,-2.8794 10.89162,-2.8794 l 7.57406,0 0,-0.50076 q 0,-4.1939 -2.06565,-5.94658 -2.06565,-1.81527 -6.32215,-1.81527 -3.63054,0 -8.32521,1.5023 -0.50076,0.12519 -1.12672,0.12519 -0.62595,0 -1.3145,-0.62596 -0.68855,-0.68855 -0.68855,-2.06565 0,-1.3771 1.62748,-2.06566 z m 1.94046,20.90692 q 0,5.00764 6.63513,5.00764 2.94199,0 5.44581,-1.4397 2.56642,-1.4397 4.1939,-3.25497 l 0,-5.25802 -6.82291,0 q -4.44428,0 -6.94811,1.12672 -2.50382,1.12672 -2.50382,3.81833 z" />
      <path
         id="path9813"
         style="font-style:normal;font-variant:normal;font-weight:normal;font-stretch:normal;line-height:93.99999976%;font-family:'Varela Round';-inkscape-font-specification:'Varela Round';text-align:center;text-anchor:middle;fill:#ffffff;fill-opacity:1"
         d="m 302.76903,989.26635 q 1.69008,0 2.37864,-0.25038 0.75114,-0.31298 1.56488,-0.31298 0.87634,0 1.56489,0.62596 0.68855,0.62595 0.68855,1.87786 0,1.25191 -1.25191,1.81527 -2.69161,1.25191 -4.63207,1.25191 -1.87786,0 -3.44275,-0.18778 -1.56489,-0.18779 -3.00459,-1.06413 -3.44275,-2.00306 -3.44275,-7.0107 l 0,-19.40462 -4.44429,0 q -1.18931,0 -1.18931,-1.18931 0,-0.56336 0.56336,-1.06413 l 8.51299,-8.3252 q 0.56336,-0.56336 1.06413,-0.56336 0.50076,0 0.81374,0.37557 0.37557,0.37557 0.37557,0.87634 l 0,5.00764 7.0733,0 q 1.06412,0 1.75267,0.68855 0.68855,0.68855 0.68855,1.75268 0,1.06412 -0.68855,1.75267 -0.68855,0.68855 -1.75267,0.68855 l -7.0733,0 0,18.90386 q 0,2.37863 1.4397,3.25497 0.81374,0.50076 2.44122,0.50076 z" />
      <path
         id="path9815"
         style="font-style:normal;font-variant:normal;font-weight:normal;font-stretch:normal;line-height:93.99999976%;font-family:'Varela Round';-inkscape-font-specification:'Varela Round';text-align:center;text-anchor:middle;fill:#ffffff;fill-opacity:1"
         d="m 315.52237,964.29073 q 0,-1.25191 0.81374,-2.06565 0.81374,-0.81375 2.00306,-0.81375 1.25191,0 2.06565,0.81375 0.81374,0.81374 0.81374,2.06565 l 0,26.85349 q 0,1.18931 -0.81374,2.00305 -0.81374,0.81375 -2.06565,0.81375 -1.18932,0 -2.00306,-0.81375 -0.81374,-0.81374 -0.81374,-2.00305 l 0,-26.85349 z m 6.25955,-12.26873 q 0,1.31451 -0.93893,2.25344 -0.93893,0.93893 -2.25344,0.93893 l -0.37557,0 q -1.31451,0 -2.25344,-0.93893 -0.93894,-0.93893 -0.93894,-2.25344 l 0,-0.25038 q 0,-1.31451 0.93894,-2.25344 0.93893,-0.93893 2.25344,-0.93893 l 0.37557,0 q 1.31451,0 2.25344,0.93893 0.93893,0.93893 0.93893,2.25344 l 0,0.25038 z" />
      <path
         id="path9817"
         style="font-style:normal;font-variant:normal;font-weight:normal;font-stretch:normal;line-height:93.99999976%;font-family:'Varela Round';-inkscape-font-specification:'Varela Round';text-align:center;text-anchor:middle;fill:#ffffff;fill-opacity:1"
         d="m 352.62981,963.03882 q 0.75115,-1.62749 2.75421,-1.62749 1.00153,0 1.81527,0.87634 0.81374,0.81374 0.81374,1.56489 0,1.00153 -0.31298,1.75267 l -10.89162,26.03975 q -0.43817,0.93893 -1.3771,1.62748 -0.87634,0.68856 -2.06566,0.68856 l -0.62595,0 q -1.18932,0 -2.12825,-0.68856 -0.87634,-0.68855 -1.31451,-1.62748 l -10.89162,-26.03975 q -0.31298,-0.75114 -0.31298,-1.62748 0,-0.87634 0.81374,-1.69008 0.81375,-0.87634 1.81527,-0.87634 2.00306,0 2.75421,1.62749 l 9.57712,24.28707 9.57711,-24.28707 z" />
      <path
         id="path9819"
         style="font-style:normal;font-variant:normal;font-weight:normal;font-stretch:normal;line-height:93.99999976%;font-family:'Varela Round';-inkscape-font-specification:'Varela Round';text-align:center;text-anchor:middle;fill:#ffffff;fill-opacity:1"
         d="m 378.1365,961.09836 q 7.26108,0 11.64277,4.56947 4.38169,4.63207 4.38169,12.01834 0,7.38628 -4.38169,12.01835 -4.38169,4.56947 -11.64277,4.56947 -7.32368,0 -11.64277,-4.56947 -4.38169,-4.56948 -4.38169,-12.01835 0,-7.44887 4.38169,-12.01834 4.31909,-4.56947 11.64277,-4.56947 z m -7.0107,25.41379 q 1.50229,1.3145 3.31756,1.94046 1.87787,0.62595 3.63054,0.62595 1.81528,0 3.63055,-0.62595 1.87786,-0.62596 3.38016,-1.94046 3.38015,-3.06719 3.38015,-8.88857 0,-5.6336 -3.38015,-8.76338 -2.8168,-2.56641 -6.94811,-2.56641 -6.76032,0 -9.38933,6.07176 -0.93893,2.19085 -0.93893,5.32062 0,3.06719 0.93893,5.25803 0.93893,2.19084 2.37863,3.56795 z" />
    </g>
  </g>
</svg>
